<?xml version="1.0" encoding="utf-8"?>
<!-- Generator: Adobe Illustrator 16.0.0, SVG Export Plug-In . SVG Version: 6.00 Build 0)  -->
<!DOCTYPE svg PUBLIC "-//W3C//DTD SVG 1.1//EN" "http://www.w3.org/Graphics/SVG/1.1/DTD/svg11.dtd">
<svg version="1.1" id="Layer_1" xmlns="http://www.w3.org/2000/svg" xmlns:xlink="http://www.w3.org/1999/xlink" x="0px" y="0px"
	 width="30px" height="30px" viewBox="0 0 30 30" style="enable-background:new 0 0 30 30;" xml:space="preserve">
<style type="text/css">
<![CDATA[
	.st0{fill:#C7C7C7;}
	.st1{fill:#FFFFFF;}
	.st2{fill:#3664D0;}
	.st3{fill:#4483EF;}
]]>
</style>
<g>
	<path class="st1" d="M8.1,1.3c0.2,0,0.5,0,0.7,0.1c0.3,0.1,0.5,0.4,0.6,0.7c0,0.2,0,0.5-0.1,0.7C9.1,3.2,8.5,3.5,8.1,3.4
		c-0.5-0.1-0.8-0.6-0.8-1C7.3,1.9,7.6,1.5,8.1,1.3"/>
	<path class="st1" d="M21.4,1.3c0.2,0,0.5,0,0.7,0.1c0.3,0.2,0.6,0.5,0.6,0.9c0,0.3-0.1,0.6-0.3,0.8c-0.2,0.2-0.4,0.3-0.7,0.3
		c-0.4,0-0.8-0.2-1-0.6c-0.1-0.2-0.1-0.4-0.1-0.7C20.7,1.8,21,1.4,21.4,1.3"/>
	<path class="st1" d="M20.1,17.1c0.5,0,1.1,0,1.6,0c0,2.1,0,4.2,0,6.3c-0.5,0-1.1,0-1.6,0C20.1,21.3,20.1,19.2,20.1,17.1"/>
	<path class="st0" d="M3,0.4C3.3,0.3,3.7,0.3,4,0.3c7.4,0,14.8,0,22.2,0c0.8,0,1.6,0.5,1.9,1.2c0.1,0.3,0.2,0.6,0.2,0.9
		c0,0.7,0,1.4,0,2.2c-0.2-0.1-0.5-0.1-0.8-0.1c-8.4,0-16.7,0-25.1,0c-0.3,0-0.5,0-0.8,0.1c0-0.7,0-1.5,0-2.2C1.7,1.5,2.2,0.7,3,0.4
		 M8.1,1.3c-0.4,0.1-0.8,0.5-0.8,1c0,0.5,0.3,0.9,0.8,1c0.5,0.1,1-0.1,1.2-0.6c0.1-0.2,0.1-0.4,0.1-0.7C9.3,1.8,9.1,1.5,8.7,1.4
		C8.5,1.3,8.3,1.3,8.1,1.3 M21.4,1.3c-0.4,0.1-0.7,0.4-0.8,0.8c0,0.2,0,0.5,0.1,0.7c0.2,0.4,0.6,0.6,1,0.6c0.3,0,0.5-0.1,0.7-0.3
		c0.2-0.2,0.3-0.5,0.3-0.8c0-0.4-0.3-0.7-0.6-0.9C21.9,1.3,21.7,1.3,21.4,1.3"/>
	<path class="st0" d="M21.3,10.8c0.1,0,0.2,0,0.4,0c0,2.1,0,4.2,0,6.3l0,0c-0.5,0-1.1,0-1.6,0v0c0-1.5,0-2.9,0-4.4
		c-1.1,0.4-2.1,0.7-3.2,1.1c0-0.5,0-1,0-1.4C18.4,11.8,19.8,11.3,21.3,10.8"/>
	<path class="st0" d="M8.4,11.6c0.7-0.5,1.5-0.8,2.3-0.8c0.8,0,1.7,0.1,2.4,0.5c0.6,0.3,1,0.8,1.3,1.4c0.2,0.6,0.3,1.3,0.2,1.9
		c-0.2,1-1,1.9-1.9,2.3c0.1,0,0.3,0.1,0.4,0.2c-0.1,0-0.2,0-0.2,0c-1.1,0-2.2,0-3.3,0c0-0.2,0-0.5,0-0.7c0.8,0,1.6,0.1,2.4-0.3
		c0.6-0.3,1.1-0.8,1.1-1.5c0.1-0.6,0-1.3-0.4-1.8c-0.3-0.4-0.8-0.7-1.3-0.7c-0.7-0.1-1.4,0-2,0.4c-0.6,0.4-0.8,1.1-0.8,1.7
		c-0.5,0-1,0-1.5,0c0-0.3,0-0.6,0.1-0.8C7.4,12.6,7.8,12,8.4,11.6"/>
	<path class="st3" d="M1.7,4.6c0.3-0.1,0.5-0.1,0.8-0.1c8.4,0,16.7,0,25.1,0c0.3,0,0.5,0,0.8,0.1c0.7,0.3,1.3,0.9,1.4,1.7
		c-0.1-0.5-0.5-1-0.9-1.3c-0.3-0.2-0.7-0.3-1.2-0.3c-8.4,0-16.8,0-25.2,0c-0.6,0-1.3,0.3-1.7,0.8C0.6,5.6,0.5,5.9,0.3,6.1
		C0.5,5.4,1,4.8,1.7,4.6"/>
	<path class="st3" d="M20.1,17.1L20.1,17.1L20.1,17.1c0,2.1,0,4.2,0,6.3c0.5,0,1.1,0,1.6,0c0-2.1,0-4.2,0-6.3l0,0l0,0
		c0.2,0,0.5,0,0.7,0c2,0,4,0,5.9,0c0.2,3.3,0.4,6.6,0.7,9.9c0,0.4,0.1,0.8,0,1.1l0,0c-0.1,0.1-0.2,0.2-0.2,0.4c-0.4,0.6-1.1,1-1.8,1
		c-7.9,0-15.8,0-23.7,0c-0.2,0-0.5,0-0.7-0.1c-0.5-0.1-1-0.5-1.3-1c-0.1-0.1-0.1-0.2-0.2-0.3l0,0c-0.1-0.5,0-1,0-1.5
		c0.2-3.2,0.4-6.4,0.6-9.5c2.6,0,5.3,0,7.9,0c0,0.2,0,0.3,0,0.5c0.8,0,1.7-0.1,2.5,0.2c0.5,0.2,1,0.7,1.1,1.2
		c0.2,0.6,0.2,1.3-0.1,1.9c-0.2,0.6-0.7,1-1.3,1.2c-0.7,0.2-1.5,0.2-2.1-0.1c-0.5-0.2-0.9-0.7-1.1-1.2c-0.1-0.2-0.1-0.5-0.1-0.7
		c-0.5,0-1,0-1.5,0c0,0.6,0.2,1.3,0.5,1.8c0.4,0.6,1,1,1.6,1.3c0.8,0.3,1.7,0.4,2.6,0.3c0.8-0.1,1.7-0.5,2.2-1.2
		c0.5-0.6,0.8-1.4,0.8-2.1c0-0.7-0.1-1.5-0.6-2.1c-0.3-0.3-0.6-0.6-1-0.8c0.2,0,0.4,0,0.5,0c1.9,0,3.7,0,5.6,0
		C19.6,17.1,19.8,17.1,20.1,17.1"/>
	<path class="st2" d="M0.8,5.4c0.4-0.5,1-0.8,1.7-0.8c8.4,0,16.8,0,25.2,0c0.4,0,0.8,0.1,1.2,0.3c0.5,0.3,0.8,0.8,0.9,1.3
		c0,0.2,0,0.4,0,0.6c-0.5,3.4-0.9,6.8-1.4,10.2c-1.9,0-3.8,0-5.7,0c-0.3,0-0.6,0-0.9,0l0,0c0-2.1,0-4.2,0-6.3c-0.1,0-0.3,0-0.4,0
		c-1.5,0.5-2.9,1-4.4,1.5c0,0.5,0,1,0,1.4c1.1-0.3,2.1-0.7,3.2-1.1c0,1.5,0,2.9,0,4.4l0,0c-2.2,0-4.4,0-6.6,0c-0.1,0-0.2,0-0.3,0
		C13,17,12.9,17,12.7,16.9c0.9-0.4,1.7-1.2,1.9-2.3c0.1-0.6,0-1.3-0.2-1.9c-0.2-0.6-0.7-1.1-1.3-1.4c-0.7-0.4-1.6-0.5-2.4-0.5
		c-0.8,0-1.6,0.3-2.3,0.8c-0.6,0.4-1,1.1-1.2,1.8c-0.1,0.3-0.1,0.6-0.1,0.8c0.5,0,1,0,1.5,0c0-0.7,0.3-1.4,0.8-1.7
		c0.6-0.4,1.3-0.5,2-0.4c0.5,0.1,1,0.3,1.3,0.7c0.4,0.5,0.4,1.2,0.4,1.8c-0.1,0.7-0.5,1.2-1.1,1.5c-0.7,0.3-1.6,0.3-2.4,0.3h0
		c0,0.2,0,0.5,0,0.7c-2.6,0-5.3,0-7.9,0c-0.4-3.3-0.9-6.7-1.4-10c-0.1-0.3-0.1-0.6,0-1C0.5,5.9,0.6,5.6,0.8,5.4"/>
	<path class="st2" d="M1,28.2c0.1,0.1,0.1,0.2,0.2,0.3c0.3,0.5,0.8,0.9,1.3,1c0.2,0.1,0.5,0.1,0.7,0.1c7.9,0,15.8,0,23.7,0
		c0.7,0,1.4-0.4,1.8-1c0.1-0.1,0.1-0.3,0.2-0.4c-0.2,0.7-0.7,1.2-1.4,1.4c-0.4,0.1-0.8,0.1-1.2,0.1c-7.7,0-15.4,0-23.1,0
		c-0.3,0-0.6,0-0.9-0.1C1.8,29.4,1.2,28.9,1,28.2"/>
</g>
</svg>
