<svg xmlns="http://www.w3.org/2000/svg" width="362.607" height="73.191" viewBox="0 0 362.607 73.191">
  <g id="Group_6" data-name="Group 6" transform="translate(-149 98)">
    <rect id="Rectangle_1" data-name="Rectangle 1" width="2.296" height="63.401" transform="translate(375.121 -97.402)" fill="#ffa819"/>
    <path id="Path_1" data-name="Path 1" d="M315.286,28.821V27.137a13.515,13.515,0,0,1,.737-4.4,29.059,29.059,0,0,1,2.307-4.914q.064-.1,1.182-2.024t1.635-2.656a11.025,11.025,0,0,0,1.263-5.74q0-3.668-1.555-3.668-1.294,0-1.6,2.04a15.258,15.258,0,0,0-.13,2.186v3.611h-4.145V9.828q0-5.295,1-7.157A4.555,4.555,0,0,1,318.72.291,8.252,8.252,0,0,1,321.067,0a4.986,4.986,0,0,1,2.476.615,4.674,4.674,0,0,1,1.717,1.716,11,11,0,0,1,1.263,5.611,13.051,13.051,0,0,1-1.343,6.063q-1.345,2.607-2.656,4.631a21.961,21.961,0,0,0-3.108,6.784h6.573v3.4Z" transform="translate(73.64 -98)" fill="#fb0"/>
    <path id="Path_2" data-name="Path 2" d="M334.914,29.508V8.646h6.994v2.738H338.09v6.069h3.628v2.679H338.09V26.77h3.96v2.738Zm6.1-22.38-4.9-1.114V2.873l4.9,2.406Z" transform="translate(68.871 -98.687)" fill="#fb0"/>
    <path id="Path_3" data-name="Path 3" d="M348.267,31.324V10.461h3.947L355.178,25.7l2.786-15.244h3.971V31.324H359.1V23.547l.118-7.136-2.809,14.817h-2.525l-2.928-14.817.119,7.136v7.776Z" transform="translate(65.676 -100.503)" fill="#fb0"/>
    <path id="Path_4" data-name="Path 4" d="M371,31.324V10.461h6.994V13.2h-3.817v6.069H377.8v2.679h-3.627v6.638h3.96v2.739Z" transform="translate(60.237 -100.503)" fill="#fb0"/>
    <path id="Path_5" data-name="Path 5" d="M316.246,55.926V41.554h4.818v1.886h-2.629V47.62h2.5v1.846h-2.5V54.04h2.727v1.886Z" transform="translate(73.337 -107.942)" fill="#fb0"/>
    <path id="Path_6" data-name="Path 6" d="M325.433,55.926V41.554h3.226a2.709,2.709,0,0,1,2.3.935,4.489,4.489,0,0,1,.714,2.756l.008,6.483a5.573,5.573,0,0,1-.719,3.185,2.711,2.711,0,0,1-2.376,1.013Zm2.189-1.7h.718a1,1,0,0,0,.879-.392,2.684,2.684,0,0,0,.273-1.437l-.008-7.1a3.389,3.389,0,0,0-.273-1.592,1,1,0,0,0-.943-.474h-.645Z" transform="translate(71.139 -107.942)" fill="#fb0"/>
    <rect id="Rectangle_2" data-name="Rectangle 2" width="2.189" height="14.372" transform="translate(405.204 -66.388)" fill="#fb0"/>
    <path id="Path_7" data-name="Path 7" d="M343.474,55.926V43.448h-1.682V41.554h5.479v1.894h-1.617V55.926Z" transform="translate(67.225 -107.942)" fill="#fb0"/>
    <rect id="Rectangle_3" data-name="Rectangle 3" width="2.189" height="14.372" transform="translate(416.12 -66.388)" fill="#fb0"/>
    <path id="Path_8" data-name="Path 8" d="M362.752,55a2.769,2.769,0,0,1-2.4,1.037,2.82,2.82,0,0,1-2.425-1.041,5.253,5.253,0,0,1-.771-3.14V45.28q0-3.953,3.226-3.952a2.763,2.763,0,0,1,2.4,1,4.976,4.976,0,0,1,.731,2.948v6.574A5.363,5.363,0,0,1,362.752,55m-3.205-1.356a.761.761,0,0,0,.788.5.753.753,0,0,0,.784-.51,5.655,5.655,0,0,0,.188-1.752v-6.7a4.263,4.263,0,0,0-.191-1.49.738.738,0,0,0-.752-.469.8.8,0,0,0-.784.469,3.653,3.653,0,0,0-.224,1.483v6.7a5.541,5.541,0,0,0,.192,1.764" transform="translate(63.55 -107.888)" fill="#fb0"/>
    <path id="Path_9" data-name="Path 9" d="M368.55,55.926V41.554h1.715l3.046,8.623-.155-3.919v-4.7h1.968V55.926h-1.551L370.445,47l.122,3.773v5.153Z" transform="translate(60.823 -107.942)" fill="#fb0"/>
    <path id="Path_10" data-name="Path 10" d="M317.684,79.751V69.377h2.328a1.956,1.956,0,0,1,1.659.675,3.242,3.242,0,0,1,.517,1.989l.006,4.68a4.017,4.017,0,0,1-.52,2.3,1.955,1.955,0,0,1-1.715.731Zm1.58-1.226h.519a.72.72,0,0,0,.634-.283,1.945,1.945,0,0,0,.2-1.038l-.005-5.121a2.441,2.441,0,0,0-.2-1.149.722.722,0,0,0-.682-.342h-.465Z" transform="translate(72.993 -114.598)" fill="#fff"/>
    <path id="Path_11" data-name="Path 11" d="M329.75,79.193a2.585,2.585,0,0,1-3.487,0,3.328,3.328,0,0,1-.545-2.1V69.37H327.3v7.686a3.584,3.584,0,0,0,.077,1,1.533,1.533,0,0,0,.186.322.548.548,0,0,0,.451.145.566.566,0,0,0,.489-.2,1.018,1.018,0,0,0,.18-.5,7.4,7.4,0,0,0,.032-.763V69.37h1.579v7.715a3.348,3.348,0,0,1-.542,2.107" transform="translate(71.071 -114.597)" fill="#fff"/>
    <path id="Path_12" data-name="Path 12" d="M337.358,79.714V79.1a4.924,4.924,0,0,1,.269-1.6,10.616,10.616,0,0,1,.84-1.789q.024-.035.43-.736t.6-.967a4.015,4.015,0,0,0,.459-2.09q0-1.335-.565-1.334c-.315,0-.509.247-.584.742a5.637,5.637,0,0,0-.046.8v1.315h-1.509V72.8a6.255,6.255,0,0,1,.362-2.606,1.657,1.657,0,0,1,1-.866,2.973,2.973,0,0,1,.855-.106,1.819,1.819,0,0,1,.9.224,1.71,1.71,0,0,1,.625.625,4,4,0,0,1,.46,2.042,4.752,4.752,0,0,1-.489,2.208q-.488.949-.966,1.685a8,8,0,0,0-1.132,2.47h2.393v1.238Z" transform="translate(68.313 -114.562)" fill="#fff"/>
    <path id="Path_13" data-name="Path 13" d="M348.6,79.069a2.018,2.018,0,0,1-1.76.763,1.923,1.923,0,0,1-1.7-.7,3.936,3.936,0,0,1-.487-2.213v-.678h1.48v.719a3.572,3.572,0,0,0,.133,1.184.555.555,0,0,0,.58.33.582.582,0,0,0,.6-.4,4.437,4.437,0,0,0,.151-1.4,3.7,3.7,0,0,0-.195-1.423.753.753,0,0,0-.76-.424h-.448v-1.2h.436a.791.791,0,0,0,.76-.375,2.689,2.689,0,0,0,.207-1.229,2.547,2.547,0,0,0-.174-1.149.592.592,0,0,0-.552-.294.537.537,0,0,0-.527.309,2.7,2.7,0,0,0-.15,1.076v.313h-1.527v-.324a3.449,3.449,0,0,1,.5-2.078,1.979,1.979,0,0,1,1.677-.657,2.105,2.105,0,0,1,1.731.678,3.208,3.208,0,0,1,.554,2.057,3.456,3.456,0,0,1-.265,1.436,1.4,1.4,0,0,1-.8.775,1.608,1.608,0,0,1,.837.919,4.708,4.708,0,0,1,.248,1.662,3.991,3.991,0,0,1-.548,2.32" transform="translate(66.541 -114.562)" fill="#fff"/>
    <path id="Path_14" data-name="Path 14" d="M355.159,79.751l1.479-10.374h2.086L360.3,79.751h-1.474l-.247-1.851H356.9l-.224,1.851Zm3.253-3.118-.7-5.21h-.024l-.637,5.21Z" transform="translate(64.027 -114.598)" fill="#fff"/>
    <path id="Path_15" data-name="Path 15" d="M367.526,79.193a2.585,2.585,0,0,1-3.487,0,3.328,3.328,0,0,1-.545-2.1V69.37h1.579v7.686a3.584,3.584,0,0,0,.077,1,1.533,1.533,0,0,0,.186.322.548.548,0,0,0,.451.145.566.566,0,0,0,.489-.2,1.018,1.018,0,0,0,.18-.5,7.4,7.4,0,0,0,.032-.763V69.37h1.579v7.715a3.348,3.348,0,0,1-.542,2.107" transform="translate(62.033 -114.597)" fill="#fff"/>
    <path id="Path_16" data-name="Path 16" d="M375.134,79.714V79.1a4.924,4.924,0,0,1,.269-1.6,10.615,10.615,0,0,1,.84-1.789q.024-.035.43-.736t.6-.967a4.014,4.014,0,0,0,.46-2.09q0-1.335-.565-1.334c-.315,0-.509.247-.584.742a5.637,5.637,0,0,0-.046.8v1.315h-1.509V72.8a6.255,6.255,0,0,1,.362-2.606,1.657,1.657,0,0,1,1-.866,2.973,2.973,0,0,1,.855-.106,1.819,1.819,0,0,1,.9.224,1.71,1.71,0,0,1,.625.625,4,4,0,0,1,.459,2.042,4.752,4.752,0,0,1-.489,2.208q-.488.949-.966,1.685a8,8,0,0,0-1.132,2.47h2.393v1.238Z" transform="translate(59.275 -114.562)" fill="#fff"/>
    <path id="Path_17" data-name="Path 17" d="M384.618,79.869q-2.057,0-2.057-2.14v-1.3h1.479v1.137q0,.719.277.89a.667.667,0,0,0,.336.065h.036q.518,0,.518-1.019V74.848a2.288,2.288,0,0,0-.118-.846.45.45,0,0,0-.459-.28q-.614,0-.613,1.008l-1.391-.059V69.378h3.837v1.415h-2.381v2.1a.817.817,0,0,1,.4-.353,1.5,1.5,0,0,1,.64-.136,1.269,1.269,0,0,1,1.261.8,6.688,6.688,0,0,1,.354,2.535,15.974,15.974,0,0,1-.121,2.411,2.756,2.756,0,0,1-.357,1.029,1.821,1.821,0,0,1-1.644.689" transform="translate(57.471 -114.599)" fill="#fff"/>
    <path id="Path_18" data-name="Path 18" d="M396.708,79.176a1.916,1.916,0,0,1-1.578.692,2.03,2.03,0,0,1-1.579-.615,2.572,2.572,0,0,1-.564-1.795V75.608h1.527v1.774q0,.86.277,1.049a.546.546,0,0,0,.307.082.457.457,0,0,0,.474-.294,2.752,2.752,0,0,0,.115-.931v-7.91h1.579V77.21a3.061,3.061,0,0,1-.558,1.966" transform="translate(54.977 -114.598)" fill="#fff"/>
    <path id="Path_19" data-name="Path 19" d="M400.28,79.751l1.479-10.374h2.086l1.574,10.374h-1.474L403.7,77.9h-1.674l-.224,1.851Zm3.253-3.118-.7-5.21h-.024l-.637,5.21Z" transform="translate(53.232 -114.598)" fill="#fff"/>
    <path id="Path_20" data-name="Path 20" d="M408.778,79.751V69.378h1.238l2.2,6.224-.113-2.828v-3.4h1.42V79.751H412.4l-2.257-6.442.088,2.723v3.719Z" transform="translate(51.199 -114.599)" fill="#fff"/>
    <path id="Path_21" data-name="Path 21" d="M418.4,79.751l-1.609-10.374h1.5l.679,4.685.418,3.3h.041l.36-3.3.565-4.685h1.474l-1.48,10.374Z" transform="translate(49.282 -114.599)" fill="#fff"/>
    <rect id="Rectangle_4" data-name="Rectangle 4" width="1.579" height="10.374" transform="translate(472.513 -45.221)" fill="#fff"/>
    <path id="Path_22" data-name="Path 22" d="M429.773,79.751V69.378h3.477V70.74h-1.9v3.018h1.8V75.09h-1.8v3.3h1.969v1.362Z" transform="translate(46.175 -114.599)" fill="#fff"/>
    <path id="Path_23" data-name="Path 23" d="M438.5,74.877l-.507-.024v4.9h-1.579V69.378h2.612a1.889,1.889,0,0,1,1.213.327,1.56,1.56,0,0,1,.528.913,7.513,7.513,0,0,1,.127,1.533,4.006,4.006,0,0,1-.2,1.442,1.12,1.12,0,0,1-.743.666.962.962,0,0,1,.749.725,10.171,10.171,0,0,1,.212,2.625,17.235,17.235,0,0,0,.059,2.143H439.39q-.059-.118-.059-3.719a1.714,1.714,0,0,0-.165-.917.808.808,0,0,0-.666-.238m-.5-1.25h.631a.633.633,0,0,0,.445-.135.815.815,0,0,0,.2-.466,6.6,6.6,0,0,0,.056-1.007v-.065a2.72,2.72,0,0,0-.141-1.1c-.094-.173-.312-.259-.654-.259H438Z" transform="translate(44.587 -114.599)" fill="#fff"/>
    <path id="Path_24" data-name="Path 24" d="M447.9,79.714V79.1a4.924,4.924,0,0,1,.269-1.6,10.618,10.618,0,0,1,.84-1.789q.024-.035.43-.736t.6-.967a4.015,4.015,0,0,0,.459-2.09q0-1.335-.565-1.334c-.315,0-.509.247-.584.742a5.632,5.632,0,0,0-.046.8v1.315h-1.509V72.8a6.255,6.255,0,0,1,.362-2.606,1.657,1.657,0,0,1,1-.866,2.973,2.973,0,0,1,.855-.106,1.819,1.819,0,0,1,.9.224,1.71,1.71,0,0,1,.625.625,4,4,0,0,1,.46,2.042,4.752,4.752,0,0,1-.489,2.208q-.488.949-.966,1.685a8,8,0,0,0-1.132,2.47h2.393v1.238Z" transform="translate(41.866 -114.562)" fill="#fff"/>
    <path id="Path_25" data-name="Path 25" d="M459.313,79.093a2.524,2.524,0,0,1-3.578,0,3.6,3.6,0,0,1-.557-2.18V71.956a3.188,3.188,0,0,1,.563-2.054,2.657,2.657,0,0,1,3.566,0,3.188,3.188,0,0,1,.563,2.054v4.957a3.6,3.6,0,0,1-.557,2.18m-1.8-.618a.662.662,0,0,0,.577-.292,2.464,2.464,0,0,0,.2-1.241V71.891q-.006-1.15-.536-1.291a1.7,1.7,0,0,0-.339-.024.621.621,0,0,0-.448.23,1.753,1.753,0,0,0-.215,1.079v5.057a2.589,2.589,0,0,0,.192,1.25.64.64,0,0,0,.566.283" transform="translate(40.097 -114.56)" fill="#fff"/>
    <path id="Path_26" data-name="Path 26" d="M463.726,79.714V79.1a4.924,4.924,0,0,1,.269-1.6,10.618,10.618,0,0,1,.84-1.789q.024-.035.43-.736t.6-.967a4.015,4.015,0,0,0,.459-2.09q0-1.335-.565-1.334c-.315,0-.509.247-.584.742a5.637,5.637,0,0,0-.046.8v1.315h-1.509V72.8a6.255,6.255,0,0,1,.362-2.606,1.657,1.657,0,0,1,1-.866,2.973,2.973,0,0,1,.855-.106,1.819,1.819,0,0,1,.9.224,1.71,1.71,0,0,1,.625.625,4,4,0,0,1,.46,2.042,4.752,4.752,0,0,1-.489,2.208q-.488.949-.966,1.685a8,8,0,0,0-1.132,2.47h2.393v1.238Z" transform="translate(38.079 -114.562)" fill="#fff"/>
    <path id="Path_27" data-name="Path 27" d="M473.21,79.869q-2.057,0-2.057-2.14v-1.3h1.479v1.137q0,.719.277.89a.667.667,0,0,0,.336.065h.036q.518,0,.518-1.019V74.848a2.289,2.289,0,0,0-.118-.846.45.45,0,0,0-.459-.28q-.614,0-.613,1.008l-1.391-.059V69.378h3.837v1.415h-2.381v2.1a.817.817,0,0,1,.4-.353,1.5,1.5,0,0,1,.64-.136,1.269,1.269,0,0,1,1.261.8,6.688,6.688,0,0,1,.354,2.535,15.98,15.98,0,0,1-.121,2.411,2.756,2.756,0,0,1-.357,1.029,1.821,1.821,0,0,1-1.644.689" transform="translate(36.275 -114.599)" fill="#fff"/>
    <path id="Path_28" data-name="Path 28" d="M104.888,25.024c0,4.66-3.516,7.561-9.115,7.561H92.2v5.363H86.4V17.433h9.378c5.6,0,9.115,2.9,9.115,7.591m-5.861,0c0-1.906-1.2-3.019-3.6-3.019H92.2v6.008h3.224c2.4,0,3.6-1.114,3.6-2.99" transform="translate(128.33 -102.171)" fill="#fb0"/>
    <path id="Path_29" data-name="Path 29" d="M130.878,33.464v4.484H114.407V17.433H130.5v4.485H120.151v3.457h9.115v4.338h-9.115v3.752Z" transform="translate(121.628 -102.171)" fill="#fb0"/>
    <path id="Path_30" data-name="Path 30" d="M144.059,22.034h-6.3v-4.6h18.376v4.6h-6.272V37.948h-5.8Z" transform="translate(116.041 -102.171)" fill="#fb0"/>
    <path id="Path_31" data-name="Path 31" d="M173.734,32.5H170.57v5.452h-5.8V17.433h9.379c5.6,0,9.114,2.9,9.114,7.591a6.809,6.809,0,0,1-4.014,6.477l4.425,6.448h-6.213Zm.06-10.492H170.57v6.008h3.224c2.4,0,3.6-1.114,3.6-2.99,0-1.9-1.2-3.019-3.6-3.019" transform="translate(109.579 -102.171)" fill="#fb0"/>
    <path id="Path_32" data-name="Path 32" d="M191.893,27.561c0-6.154,4.837-10.668,11.4-10.668s11.4,4.514,11.4,10.668-4.836,10.668-11.4,10.668-11.4-4.514-11.4-10.668m16.939,0a5.548,5.548,0,1,0-11.078,0,5.548,5.548,0,1,0,11.078,0" transform="translate(103.089 -102.041)" fill="#fb0"/>
    <path id="Path_33" data-name="Path 33" d="M225.876,17.433h5.8V33.347h9.789v4.6H225.876Z" transform="translate(94.958 -102.171)" fill="#fb0"/>
    <rect id="Rectangle_5" data-name="Rectangle 5" width="5.802" height="20.515" transform="translate(338.716 -84.737)" fill="#fb0"/>
    <path id="Path_34" data-name="Path 34" d="M275.412,33.963h-8.675l-1.613,3.985H259.2l9.057-20.514h5.715l9.086,20.514h-6.038Zm-1.7-4.279-2.638-6.564-2.638,6.564Z" transform="translate(86.985 -102.171)" fill="#fb0"/>
    <path id="Path_35" data-name="Path 35" d="M93.972,60.19l-.027-5.264-2.555,4.285H90.141L87.6,55.068V60.19h-2.6V50.258h2.313l3.491,5.732,3.4-5.732h2.313l.029,9.932Z" transform="translate(128.662 -110.024)" fill="#fb0"/>
    <path id="Path_36" data-name="Path 36" d="M102.122,55.161a5.531,5.531,0,1,1,5.519,5.165,5.194,5.194,0,0,1-5.519-5.165m8.2,0A2.686,2.686,0,1,0,107.641,58a2.659,2.659,0,0,0,2.682-2.838" transform="translate(124.567 -109.961)" fill="#fb0"/>
    <path id="Path_37" data-name="Path 37" d="M122.91,57.552h-1.534v2.639h-2.809V50.259h4.54c2.71,0,4.412,1.4,4.412,3.673a3.3,3.3,0,0,1-1.944,3.137l2.142,3.121h-3.008Zm.027-5.08h-1.561V55.38h1.561c1.163,0,1.746-.539,1.746-1.448s-.583-1.461-1.746-1.461" transform="translate(120.632 -110.024)" fill="#fb0"/>
    <path id="Path_38" data-name="Path 38" d="M131.7,55.161a5.531,5.531,0,1,1,5.519,5.165,5.194,5.194,0,0,1-5.519-5.165m8.2,0A2.686,2.686,0,1,0,137.214,58a2.659,2.659,0,0,0,2.682-2.838" transform="translate(117.492 -109.961)" fill="#fb0"/>
    <path id="Path_39" data-name="Path 39" d="M147.469,55.161A5.137,5.137,0,0,1,152.931,50,5.255,5.255,0,0,1,157.2,51.87l-1.787,1.617a2.935,2.935,0,0,0-2.342-1.163,2.838,2.838,0,0,0,0,5.675,2.938,2.938,0,0,0,2.342-1.164l1.787,1.617a5.252,5.252,0,0,1-4.271,1.874,5.137,5.137,0,0,1-5.462-5.165" transform="translate(113.718 -109.961)" fill="#fb0"/>
    <path id="Path_40" data-name="Path 40" d="M160.95,55.161A5.137,5.137,0,0,1,166.413,50a5.252,5.252,0,0,1,4.27,1.874L168.9,53.487a2.935,2.935,0,0,0-2.342-1.163,2.838,2.838,0,0,0,0,5.675,2.938,2.938,0,0,0,2.342-1.164l1.787,1.617a5.25,5.25,0,0,1-4.27,1.874,5.137,5.137,0,0,1-5.463-5.165" transform="translate(110.492 -109.961)" fill="#fb0"/>
    <path id="Path_41" data-name="Path 41" d="M174.432,55.161a5.531,5.531,0,1,1,5.519,5.165,5.193,5.193,0,0,1-5.519-5.165m8.2,0A2.686,2.686,0,1,0,179.951,58a2.659,2.659,0,0,0,2.682-2.838" transform="translate(107.267 -109.961)" fill="#fb0"/>
    <path id="Path_42" data-name="Path 42" d="M57.235,44.983c0-8.972-10.976-18.692-16.825-25.8l-.28-.341V61.806c.093,0,.186,0,.28,0A16.825,16.825,0,0,0,57.235,44.983" transform="translate(139.399 -102.507)" fill="#fb0" fill-rule="evenodd"/>
    <path id="Path_43" data-name="Path 43" d="M15.342,40.664c0-9.217,10.882-19.26,16.264-25.8l.281-.341V.786c-9.025,10.3-26.2,24.975-26.2,39.878a26.485,26.485,0,0,0,26.2,26.484V57.487A16.825,16.825,0,0,1,15.342,40.664" transform="translate(147.64 -98.188)" fill="#fb0" fill-rule="evenodd"/>
    <path id="Path_44" data-name="Path 44" d="M32.552,47.822v-6.2c.333-.193.657-.2.916-.522a3.16,3.16,0,0,1,.632-.549c.094-.023.108-.14.193-.192.113-.072.14.111.321-.1.119-.141.3-.37.5-.389.135-.014.146.017.209-.1s.147-.175.209-.275c.307-.065.329-.253.624-.377.245-.1.472-.068.472-.407.005,0,0,0,0-.008a1.8,1.8,0,0,0,1.134-.206c.218-.146.612-.549.9-.549.048.192.39.144.555.159.227-.018.446.18.7.18a.626.626,0,0,1,.739-.261c.231.1.249-.238.467-.228l.533.026c.349.017.3-.19.659-.051s.664-.071,1.048-.094c.324-.189.331-.068.6,0,0,.091-.072.208-.072.3,0,.039.043.056.081.068.022.007.054-.117.1-.129.037.146.288.229.418.243.185.022.221-.171.351-.325a4.086,4.086,0,0,0,.633-.866c.053-.119.015-.316.06-.454a1.518,1.518,0,0,1,.3-.416,5.41,5.41,0,0,0,1.076-.813c.468-.337,1.215-.431,1.583-.913a2.706,2.706,0,0,1,1.616-1.087,2,2,0,0,1,.568-.121,1.734,1.734,0,0,0,.851-.214c.147-.07.777-.294.521-.472-.114-.079-.1-.518.073-.518,0-.007.006,0,.008-.014.119,0,.063-.2.132-.231.244-.109.11-.172.158-.39.006-.027.036-.171-.017-.176-.178-.014-.062.017-.221-.1-.008-.03-.049-.2-.1-.18-.023.009-.137.175-.145.013-.005-.1-.01-.169-.1-.223-.08.061-.122.266-.265.16-.079-.06-.017-.288-.017-.374a.7.7,0,0,1-.094-.142c0-.087.155-.074.175-.154-.081-.082-.169-.316,0-.355.057-.015.1.005.154-.031a.653.653,0,0,0,.145-.18V28.544l3.271-.771c-.021-.084-.122-.176-.124-.244-.011-.231-.03-.214-.154-.415-.049-.081-.236-.7-.074-.758a5.507,5.507,0,0,1,.886-.025,1.9,1.9,0,0,0,.531-.168,4.719,4.719,0,0,1,1.029-.043,1.876,1.876,0,0,1,.437.094c.228.062.346-.065.551-.119.155-.037.214.078.3.043a2.09,2.09,0,0,1,.761.107,2.671,2.671,0,0,0,.812.171c.377-.064.88.164,1.2.057.5-.17.218-.2.017-.472a1.428,1.428,0,0,1,.112-1.012c.039-.043.2.011.269-.021a2.323,2.323,0,0,0,.479-.488l-.945-.755-.539-.239-.607-1.041c.3.108.316-.217.316-.424,0-.113-.31-.22-.38-.291-.1-.1-.061-.332-.146-.451-.236-.332-.342-.205-.256-.673.039-.211.221-.313.176-.531-.03-.145.2-.142.119-.275-.066-.108-.047-.125-.047-.248,0-.087-.129-.275-.149-.4-.011-.058-.123,0-.15,0-.132.008-.176-.059-.265-.141.022-.26.228-.129.261-.24.043-.141-.1-.214-.1-.335,0-.41.3-.94.181-1.337a2.39,2.39,0,0,1-.2-.625c0-.1.087-.178.038-.3-.038-.094-.153-.171-.214-.253-.027-.069-.16-.159-.085-.224.044-.037.448-.32.265-.377-.258-.079-.207-.144-.324-.347-.056-.094-.291-.272-.154-.33.11-.047.076-.169.1-.256.043-.139.405-.211.052-.377a1.7,1.7,0,0,1-.4-.171c-.065-.061.041-.2-.1-.235-.307-.075-.119-.355-.227-.391-.043-.014-.147.056-.209.056a.591.591,0,0,1-.38-.211l-.455-.658a2.879,2.879,0,0,1-.345-.031c-.072-.015-.336-.173-.376-.15-.2.107-.326.415-.582.364-.277-.054-.6-.4-.825-.171-.1.1-.32-.035-.376-.137-.108-.2-.055-.232,0-.441,0-.208-.383-.848-.261-.947-.2,0-.209.141-.3.3-.118.206-.334.321-.428.484-.132.23-.245.1-.453.164-.113.034-.222.149-.342.154a2.1,2.1,0,0,1-1.013-.188c-.12-.053-.316-.261-.433-.261-.347,0-.256.763-.82.278-.15-.128-.523.113-.706.1a4.074,4.074,0,0,0-.8.231c-.31.126-.453-.074-.748-.081a2.19,2.19,0,0,1-1.223-.526l-.644-.515c-.33-.262-.439-.568-.835-.72-.25-.187-.176-.475-.329-.733a.81.81,0,0,1-.146-.771c.021-.047.146-.151.146-.176a2.991,2.991,0,0,0-.557-.021c-.208,0-.348.289-.568.339-.173.04-.331-.014-.5.04-.275.085-.279.187-.612.124-.143-.029-.106.09-.2.187-.247.4-.174,1-.445,1.431a9.637,9.637,0,0,0-.423,1.257,3.379,3.379,0,0,1-.249.673,4.485,4.485,0,0,1-.748,1.808,9.1,9.1,0,0,1-.924,1.658c-.18.765-.738,1.143-1.162,1.757-.162.234-.62.364-.835.587l-1.1.66a12.84,12.84,0,0,1-1.424.673l-1.226.552c-.269.122-.507.3-.758.394l-.239.3c-.244.115-.445-.09-.663.142-.176.187-.17.455-.308.66a6.026,6.026,0,0,1-1.363,1.41c-.309.209-.608.856-.949.956a1.058,1.058,0,0,1-.162.163c0,.184.236.339.055.569-.032.043-.183.168-.167.206.314.063.189.336.189.543,0,.35-.008.389-.236.618-.115.116-.061.335-.145.48a1.784,1.784,0,0,1-.5.553c-.21.423-.577.581-.7,1.062-.094.365-.376.432-.376.767,0,.124-.312.376-.24.437.216.186.1.6.056.875s-.218.254-.008.514a6.128,6.128,0,0,1,.03.652,1.111,1.111,0,0,1-.005.539c-.054.231-.545.921-.068.943.285.014.353.3.479.5.186.3.392.39.4.793a8.278,8.278,0,0,1-.423,1.461,3.968,3.968,0,0,1-.9,1.35c-.139.1-.191.279-.316.39a5.792,5.792,0,0,1-.873,1.452c-.161.154-.355.192-.488.39a7,7,0,0,1-.473.729,2.57,2.57,0,0,1-.994.59,6,6,0,0,1-.992.541c-.253.113-.381.428-.64.583-.44.264-.723.856-1.083,1.233-.3.32-.875.355-1.222.587-.062.1-.342.135-.454.167a2.462,2.462,0,0,0-.547.313,3.37,3.37,0,0,1-1.1.326,6.292,6.292,0,0,0-2.451.544,2.121,2.121,0,0,1-.615.87.871.871,0,0,0-.394.63,5.107,5.107,0,0,1-.761,1.752l-.162.785c-.049.236-.2.448-.266.682-.157.554-.465.6-.885.921l-.731.556a1.1,1.1,0,0,1-.727.27c-.2-.026-.247.008-.325.211-.171.452-.658.329-.843.685-.072.141-.325.326-.307.45a2.259,2.259,0,0,1-.017.413A2.165,2.165,0,0,1,9.5,54.4a5.444,5.444,0,0,1-.577,1.458,1.892,1.892,0,0,0-.227,1.26,1.811,1.811,0,0,1,.047.766,3.828,3.828,0,0,1-.4,1.286c-.2.065-.129.1-.205.235-.087.151-.293.223-.428.326-.221.17-.384.424-.6.578a4.73,4.73,0,0,0-.821.741c-.264.265-.417.657-.714.87a4.708,4.708,0,0,0-.607.476,3.138,3.138,0,0,0-.727,1.121,7.914,7.914,0,0,0,.8-1.083c.153-.189.18.021.27.154s-.342.45-.4.553c-.1.176-.167.363-.266.536l-.363.673c-.11.2-.3.332-.389.536-.061.148-.081.3-.149.445-.045.1-.358.481-.351.488a.988.988,0,0,1,.175.035c.194.272-.067.638-.346.723-.1.087-.231.136-.159.283.042.081-.021.162-.077.227-.156.183-.088.512-.132.733s-.183.21-.308.372c-.188.243-.118.493-.239.746-.07.146-.525.38-.654.261-.189-.176-.086-.008-.235.111-.4.244-.472.714-.607,1.127-.126.382-.4.6-.4,1.012a2.05,2.05,0,0,1-.085.66,21.837,21.837,0,0,1-.308,2.545,1.511,1.511,0,0,0,.047.6l.056-.56.236-.972L.5,73.15H15.789l-.09-3.03-.218-2.034-.281-.87a.625.625,0,0,0,.214-.5c-.009-.161-.086-.214.05-.351a4.461,4.461,0,0,1,.74-.526,5.4,5.4,0,0,0,1-.7,1.23,1.23,0,0,1,.612-.176c.435,0,.664-.3,1.03-.44a4.172,4.172,0,0,0,.806-.282l0-10.791h12.9Z" transform="translate(149 -100.061)" fill="#d9000d" fill-rule="evenodd"/>
    <path id="Path_45" data-name="Path 45" d="M51.521,27.143l-.607-1.868-.607,1.868Zm1.763,1.281.374,1.151,1.585-1.151Zm-6.7,0,1.584,1.151.375-1.151Zm2.673,1.943,1.655,1.2,1.654-1.2-.631-1.943H49.891Zm-.416,1.282-.606,1.864,1.586-1.152ZM52,32.361l1.586,1.152-.606-1.864Zm-6.2,4.506,1.953-6.01-5.111-3.714H48.96l1.954-6.014,1.954,6.014h6.318l-5.113,3.714,1.953,6.01-5.112-3.715Z" transform="translate(138.798 -103.055)" fill="#2e9627" fill-rule="evenodd"/>
    <rect id="Rectangle_6" data-name="Rectangle 6" width="0.611" height="3.171" transform="translate(213.853 -44.43)" fill="#fff"/>
    <path id="Path_46" data-name="Path 46" d="M86.834,70.417h.585l1.314,2.052V70.417h.6v3.171h-.577l-1.323-2.11v2.11h-.6Z" transform="translate(128.225 -114.847)" fill="#fff"/>
    <path id="Path_47" data-name="Path 47" d="M90.585,70.966v-.549H92.4v.549h-.6v2.622h-.612V70.966Z" transform="translate(127.327 -114.847)" fill="#fff"/>
    <path id="Path_48" data-name="Path 48" d="M93.437,70.417h1.71v.549h-1.1V71.7h1.1v.54h-1.1v.8h1.1v.542h-1.71Z" transform="translate(126.645 -114.847)" fill="#fff"/>
    <path id="Path_49" data-name="Path 49" d="M97.054,73.588h-.611V70.416h.971a1.294,1.294,0,0,1,.9.281.925.925,0,0,1,.284.711,1.03,1.03,0,0,1-.183.6.856.856,0,0,1-.581.348l.8,1.235h-.739L97.054,72.1Zm0-2.657v1.035h.171a.949.949,0,0,0,.553-.14.479.479,0,0,0,.2-.409.447.447,0,0,0-.143-.345.67.67,0,0,0-.459-.141Z" transform="translate(125.926 -114.847)" fill="#fff"/>
    <path id="Path_50" data-name="Path 50" d="M99.862,70.417h.585l1.314,2.052V70.417h.6v3.171h-.577l-1.323-2.11v2.11h-.6Z" transform="translate(125.108 -114.847)" fill="#fff"/>
    <path id="Path_51" data-name="Path 51" d="M103.373,73.588l1.226-3.171h.532l1.215,3.171h-.657l-.243-.66h-1.187l-.253.66Zm1.1-1.244h.765l-.378-1.035Z" transform="translate(124.268 -114.847)" fill="#fff"/>
    <path id="Path_52" data-name="Path 52" d="M107.222,70.966v-.549h1.82v.549h-.6v2.622h-.612V70.966Z" transform="translate(123.347 -114.847)" fill="#fff"/>
    <rect id="Rectangle_7" data-name="Rectangle 7" width="0.611" height="3.171" transform="translate(232.738 -44.43)" fill="#fff"/>
    <path id="Path_53" data-name="Path 53" d="M111.469,71.954a1.672,1.672,0,0,1,.431-1.1,1.643,1.643,0,0,1,2.412.01,1.707,1.707,0,0,1,.424,1.107,1.689,1.689,0,0,1-.447,1.153,1.624,1.624,0,0,1-1.207.507,1.531,1.531,0,0,1-1.2-.546,1.786,1.786,0,0,1-.411-1.131m1.648-.982a.98.98,0,0,0-.74.321,1.03,1.03,0,0,0-.269.679,1.078,1.078,0,0,0,.272.682.971.971,0,0,0,.737.344.942.942,0,0,0,.712-.331,1.077,1.077,0,0,0,.269-.687,1.06,1.06,0,0,0-.256-.683.936.936,0,0,0-.724-.326" transform="translate(122.331 -114.827)" fill="#fff"/>
    <path id="Path_54" data-name="Path 54" d="M116.358,70.417h.585l1.314,2.052V70.417h.6v3.171h-.577l-1.323-2.11v2.11h-.6Z" transform="translate(121.161 -114.847)" fill="#fff"/>
    <path id="Path_55" data-name="Path 55" d="M119.869,73.588l1.226-3.171h.532l1.215,3.171h-.657l-.243-.66h-1.187l-.253.66Zm1.1-1.244h.765l-.378-1.035Z" transform="translate(120.321 -114.847)" fill="#fff"/>
    <path id="Path_56" data-name="Path 56" d="M124.65,73.045h.991v.542h-1.6V70.417h.611Z" transform="translate(119.323 -114.847)" fill="#fff"/>
    <path id="Path_57" data-name="Path 57" d="M128.461,70.417h1.71v.549h-1.1V71.7h1.1v.54h-1.1v.8h1.1v.542h-1.71Z" transform="translate(118.265 -114.847)" fill="#fff"/>
    <path id="Path_58" data-name="Path 58" d="M132.083,71.992l-.98-1.576h.683l.622,1.108.622-1.108h.692l-.991,1.576,1.018,1.6h-.692l-.648-1.118-.649,1.118h-.685Z" transform="translate(117.64 -114.847)" fill="#fff"/>
    <path id="Path_59" data-name="Path 59" d="M134.969,73.588V70.417h.611V71.7h1.026V70.417h.613v3.171h-.613V72.3H135.58v1.29Z" transform="translate(116.708 -114.847)" fill="#fff"/>
    <rect id="Rectangle_8" data-name="Rectangle 8" width="0.611" height="3.171" transform="translate(254.522 -44.43)" fill="#fff"/>
    <path id="Path_60" data-name="Path 60" d="M140.294,70.416h.89a.887.887,0,0,1,.651.259.819.819,0,0,1,.232.569.866.866,0,0,1-.067.366.573.573,0,0,1-.258.274.6.6,0,0,1,.388.294A.993.993,0,0,1,142,73.306a1.006,1.006,0,0,1-.749.281h-.954Zm.593,1.279h.171a.467.467,0,0,0,.318-.107.328.328,0,0,0,.115-.244.359.359,0,0,0-.1-.269.466.466,0,0,0-.332-.109h-.171Zm0,.5v.846h.305a.462.462,0,0,0,.341-.125.4.4,0,0,0,.11-.279.417.417,0,0,0-.135-.316.554.554,0,0,0-.377-.126Z" transform="translate(115.434 -114.847)" fill="#fff"/>
    <rect id="Rectangle_9" data-name="Rectangle 9" width="0.611" height="3.171" transform="translate(258.078 -44.43)" fill="#fff"/>
    <path id="Path_61" data-name="Path 61" d="M144.647,70.966v-.549h1.82v.549h-.6v2.622h-.612V70.966Z" transform="translate(114.393 -114.847)" fill="#fff"/>
    <rect id="Rectangle_10" data-name="Rectangle 10" width="0.611" height="3.171" transform="translate(261.209 -44.43)" fill="#fff"/>
    <path id="Path_62" data-name="Path 62" d="M148.894,71.954a1.672,1.672,0,0,1,.431-1.1,1.643,1.643,0,0,1,2.412.01,1.707,1.707,0,0,1,.424,1.107,1.689,1.689,0,0,1-.447,1.153,1.624,1.624,0,0,1-1.207.507,1.531,1.531,0,0,1-1.2-.546,1.786,1.786,0,0,1-.411-1.131m1.648-.982a.98.98,0,0,0-.74.321,1.03,1.03,0,0,0-.269.679,1.078,1.078,0,0,0,.272.682.971.971,0,0,0,.737.344.942.942,0,0,0,.712-.331,1.077,1.077,0,0,0,.269-.687,1.06,1.06,0,0,0-.256-.683.936.936,0,0,0-.724-.326" transform="translate(113.377 -114.827)" fill="#fff"/>
    <path id="Path_63" data-name="Path 63" d="M153.782,70.417h.585l1.314,2.052V70.417h.6v3.171h-.577l-1.323-2.11v2.11h-.6Z" transform="translate(112.207 -114.847)" fill="#fff"/>
    <path id="Path_64" data-name="Path 64" d="M159.436,71.954a1.672,1.672,0,0,1,.431-1.1,1.643,1.643,0,0,1,2.412.01,1.707,1.707,0,0,1,.424,1.107,1.689,1.689,0,0,1-.447,1.153,1.624,1.624,0,0,1-1.207.507,1.531,1.531,0,0,1-1.2-.546,1.786,1.786,0,0,1-.411-1.131m1.648-.982a.98.98,0,0,0-.74.321,1.03,1.03,0,0,0-.269.679,1.078,1.078,0,0,0,.272.682.971.971,0,0,0,.737.344.942.942,0,0,0,.712-.331,1.077,1.077,0,0,0,.269-.687,1.06,1.06,0,0,0-.256-.683.936.936,0,0,0-.724-.326" transform="translate(110.854 -114.827)" fill="#fff"/>
    <path id="Path_65" data-name="Path 65" d="M164.325,70.417h1.71v.549h-1.1V71.7h1.1v.54h-1.1v1.343h-.611Z" transform="translate(109.685 -114.847)" fill="#fff"/>
    <path id="Path_66" data-name="Path 66" d="M169.607,73.588H169V70.417h.962a.965.965,0,0,1,.781.319,1.02,1.02,0,0,1-.062,1.334,1.022,1.022,0,0,1-.745.3h-.326Zm0-2.622v.873h.27a.434.434,0,0,0,.326-.134.441.441,0,0,0,.116-.3.433.433,0,0,0-.119-.316.48.48,0,0,0-.35-.126Z" transform="translate(108.567 -114.847)" fill="#fff"/>
    <path id="Path_67" data-name="Path 67" d="M172.085,70.417h1.71v.549h-1.1V71.7h1.1v.54h-1.1v.8h1.1v.542h-1.71Z" transform="translate(107.828 -114.847)" fill="#fff"/>
    <path id="Path_68" data-name="Path 68" d="M174.77,70.966v-.549h1.82v.549h-.6v2.622h-.612V70.966Z" transform="translate(107.186 -114.847)" fill="#fff"/>
    <path id="Path_69" data-name="Path 69" d="M178.234,73.588h-.611V70.416h.971a1.294,1.294,0,0,1,.9.281.925.925,0,0,1,.284.711,1.03,1.03,0,0,1-.183.6.856.856,0,0,1-.581.348l.8,1.235h-.739l-.837-1.488Zm0-2.657v1.035h.171a.949.949,0,0,0,.553-.14.479.479,0,0,0,.2-.409.447.447,0,0,0-.143-.345.67.67,0,0,0-.459-.141Z" transform="translate(106.503 -114.847)" fill="#fff"/>
    <path id="Path_70" data-name="Path 70" d="M180.851,71.954a1.672,1.672,0,0,1,.431-1.1,1.643,1.643,0,0,1,2.412.01,1.707,1.707,0,0,1,.424,1.107,1.689,1.689,0,0,1-.447,1.153,1.624,1.624,0,0,1-1.207.507,1.531,1.531,0,0,1-1.2-.546,1.786,1.786,0,0,1-.411-1.131m1.648-.982a.98.98,0,0,0-.74.321,1.03,1.03,0,0,0-.269.679,1.078,1.078,0,0,0,.272.682A.971.971,0,0,0,182.5,73a.942.942,0,0,0,.712-.331,1.077,1.077,0,0,0,.269-.687,1.06,1.06,0,0,0-.256-.683.936.936,0,0,0-.724-.326" transform="translate(105.731 -114.827)" fill="#fff"/>
    <path id="Path_71" data-name="Path 71" d="M186.351,73.045h.991v.542h-1.6V70.417h.611Z" transform="translate(104.561 -114.847)" fill="#fff"/>
    <path id="Path_72" data-name="Path 72" d="M188.39,70.417h1.71v.549H189V71.7h1.1v.54H189v.8h1.1v.542h-1.71Z" transform="translate(103.927 -114.847)" fill="#fff"/>
    <path id="Path_73" data-name="Path 73" d="M191.4,72.667v-2.25h.611v1.989a.926.926,0,0,0,.073.408.352.352,0,0,0,.342.205.332.332,0,0,0,.309-.19.906.906,0,0,0,.087-.414v-2h.613V72.6a1.086,1.086,0,0,1-.25.742,1,1,0,0,1-.777.306.98.98,0,0,1-.778-.321,1.032,1.032,0,0,1-.231-.663" transform="translate(103.208 -114.847)" fill="#fff"/>
    <path id="Path_74" data-name="Path 74" d="M194.852,70.417h.82l.809,2.305.8-2.305h.82v3.171h-.6v-2.3l-.8,2.3h-.459l-.8-2.334v2.334h-.593Z" transform="translate(102.381 -114.847)" fill="#fff"/>
    <path id="Path_75" data-name="Path 75" d="M200.036,74.976v-.314a.153.153,0,0,0,.147-.086.4.4,0,0,0,.033-.176h-.18v-.587h.549v.642a.519.519,0,0,1-.119.355.571.571,0,0,1-.43.165" transform="translate(101.141 -115.66)" fill="#fff"/>
    <path id="Path_76" data-name="Path 76" d="M204.539,72.413v-.523h1.98v.189a1.538,1.538,0,0,1-.454,1.061,1.643,1.643,0,0,1-1.183.491,1.542,1.542,0,0,1-1.234-.571,1.8,1.8,0,0,1-.4-1.107,1.64,1.64,0,0,1,1.684-1.622,1.493,1.493,0,0,1,1.451.983h-.756a.851.851,0,0,0-.308-.26.992.992,0,0,0-.448-.092.93.93,0,0,0-.681.318,1.071,1.071,0,0,0-.284.709,1.048,1.048,0,0,0,.264.686.972.972,0,0,0,.745.331.939.939,0,0,0,.552-.186.907.907,0,0,0,.321-.408Z" transform="translate(100.372 -114.827)" fill="#fff"/>
    <path id="Path_77" data-name="Path 77" d="M207.58,73.588l1.226-3.171h.533l1.215,3.171H209.9l-.243-.66h-1.187l-.253.66Zm1.1-1.244h.765l-.378-1.035Z" transform="translate(99.336 -114.847)" fill="#fff"/>
    <path id="Path_78" data-name="Path 78" d="M212.479,70.874a.328.328,0,0,0-.255.112.372.372,0,0,0-.086.24.314.314,0,0,0,.108.264.808.808,0,0,0,.277.131q.169.047.354.112a.946.946,0,0,1,.341.215.643.643,0,0,1,.164.247,1.051,1.051,0,0,1,.054.364,1.159,1.159,0,0,1-.239.735.966.966,0,0,1-.779.34.863.863,0,0,1-.7-.329,1.148,1.148,0,0,1-.231-.708h.567a.625.625,0,0,0,.081.329.33.33,0,0,0,.3.156.377.377,0,0,0,.318-.135.48.48,0,0,0,.087-.3.385.385,0,0,0-.106-.292.613.613,0,0,0-.256-.131c-.1-.027-.211-.059-.325-.1a.832.832,0,0,1-.311-.19.843.843,0,0,1-.194-.291.911.911,0,0,1-.059-.33,1.093,1.093,0,0,1,.21-.66.853.853,0,0,1,.709-.323.789.789,0,0,1,.659.31,1.023,1.023,0,0,1,.2.6H212.8a.428.428,0,0,0-.078-.256.3.3,0,0,0-.247-.113" transform="translate(98.4 -114.827)" fill="#fff"/>
    <path id="Path_79" data-name="Path 79" d="M215.85,73.588l1.226-3.171h.532l1.215,3.171h-.657l-.243-.66h-1.187l-.253.66Zm1.1-1.244h.765l-.378-1.035Z" transform="translate(97.357 -114.847)" fill="#fff"/>
    <path id="Path_80" data-name="Path 80" d="M220.019,70.417h.585l1.314,2.052V70.417h.6v3.171h-.577l-1.323-2.11v2.11h-.6Z" transform="translate(96.36 -114.847)" fill="#fff"/>
    <path id="Path_81" data-name="Path 81" d="M224.091,70.416h1.178a1.372,1.372,0,0,1,1.162.517,1.9,1.9,0,0,1,0,2.122,1.349,1.349,0,0,1-1.144.533h-1.2Zm.611,2.638h.5a.836.836,0,0,0,.747-.339,1.294,1.294,0,0,0,.18-.723,1.1,1.1,0,0,0-.239-.731.977.977,0,0,0-.779-.313H224.7Z" transform="translate(95.386 -114.847)" fill="#fff"/>
    <path id="Path_82" data-name="Path 82" d="M230.569,73.588h-.611V70.416h.971a1.294,1.294,0,0,1,.9.281.925.925,0,0,1,.284.711,1.03,1.03,0,0,1-.183.6.856.856,0,0,1-.581.348l.8,1.235h-.739l-.837-1.488Zm0-2.657v1.035h.171a.949.949,0,0,0,.553-.14.479.479,0,0,0,.2-.409.447.447,0,0,0-.143-.345.67.67,0,0,0-.459-.141Z" transform="translate(93.982 -114.847)" fill="#fff"/>
    <path id="Path_83" data-name="Path 83" d="M233.376,70.417h1.71v.549h-1.1V71.7h1.1v.54h-1.1v.8h1.1v.542h-1.71Z" transform="translate(93.164 -114.847)" fill="#fff"/>
    <path id="Path_84" data-name="Path 84" d="M236.382,70.417h.585l1.314,2.052V70.417h.6v3.171h-.577l-1.323-2.11v2.11h-.6Z" transform="translate(92.445 -114.847)" fill="#fff"/>
    <path id="Path_85" data-name="Path 85" d="M240.454,70.417h1.71v.549h-1.1V71.7h1.1v.54h-1.1v.8h1.1v.542h-1.71Z" transform="translate(91.471 -114.847)" fill="#fff"/>
    <path id="Path_86" data-name="Path 86" d="M243.941,73.588l-.912-3.171h.624l.523,2.078.584-2.078h.422l.578,2.07.538-2.07h.622L246,73.588h-.494l-.541-1.973-.541,1.973Z" transform="translate(90.854 -114.847)" fill="#fff"/>
    <path id="Path_87" data-name="Path 87" d="M247.928,73.588l1.226-3.171h.533l1.215,3.171h-.657l-.243-.66h-1.187l-.253.66Zm1.1-1.244h.765l-.378-1.035Z" transform="translate(89.682 -114.847)" fill="#fff"/>
    <path id="Path_88" data-name="Path 88" d="M252.1,70.416h.89a.887.887,0,0,1,.651.259.819.819,0,0,1,.232.569.866.866,0,0,1-.067.366.573.573,0,0,1-.258.274.6.6,0,0,1,.388.294.994.994,0,0,1-.133,1.127,1.006,1.006,0,0,1-.749.281H252.1Zm.593,1.279h.171a.467.467,0,0,0,.318-.107.328.328,0,0,0,.115-.244.359.359,0,0,0-.1-.269.466.466,0,0,0-.332-.109h-.171Zm0,.5v.846H253a.462.462,0,0,0,.341-.125.4.4,0,0,0,.11-.279.417.417,0,0,0-.135-.316.555.555,0,0,0-.377-.126Z" transform="translate(88.685 -114.847)" fill="#fff"/>
    <path id="Path_89" data-name="Path 89" d="M255.186,70.417h1.71v.549h-1.1V71.7h1.1v.54h-1.1v.8h1.1v.542h-1.71Z" transform="translate(87.946 -114.847)" fill="#fff"/>
    <path id="Path_90" data-name="Path 90" d="M258.8,73.045h.991v.542h-1.6V70.417h.611Z" transform="translate(87.227 -114.847)" fill="#fff"/>
    <path id="Path_91" data-name="Path 91" d="M260.842,70.417h1.71v.549h-1.1V71.7h1.1v.54h-1.1v.8h1.1v.542h-1.71Z" transform="translate(86.593 -114.847)" fill="#fff"/>
    <path id="Path_92" data-name="Path 92" d="M265.62,70.417h1.71v.549h-1.1V71.7h1.1v.54h-1.1v.8h1.1v.542h-1.71Z" transform="translate(85.45 -114.847)" fill="#fff"/>
    <path id="Path_93" data-name="Path 93" d="M268.626,70.417h.585l1.314,2.052V70.417h.6v3.171h-.577l-1.323-2.11v2.11h-.6Z" transform="translate(84.73 -114.847)" fill="#fff"/>
    <path id="Path_94" data-name="Path 94" d="M272.7,70.417h1.71v.549h-1.1V71.7h1.1v.54h-1.1v.8h1.1v.542H272.7Z" transform="translate(83.756 -114.847)" fill="#fff"/>
    <path id="Path_95" data-name="Path 95" d="M276.315,73.588H275.7V70.416h.971a1.294,1.294,0,0,1,.9.281.926.926,0,0,1,.284.711,1.03,1.03,0,0,1-.183.6.856.856,0,0,1-.581.348l.8,1.235h-.739l-.837-1.488Zm0-2.657v1.035h.171a.949.949,0,0,0,.553-.14.479.479,0,0,0,.2-.409.447.447,0,0,0-.143-.345.67.67,0,0,0-.459-.141Z" transform="translate(83.037 -114.847)" fill="#fff"/>
    <path id="Path_96" data-name="Path 96" d="M280.219,72.413v-.523h1.98v.189a1.538,1.538,0,0,1-.454,1.061,1.643,1.643,0,0,1-1.183.491,1.542,1.542,0,0,1-1.234-.571,1.8,1.8,0,0,1-.4-1.107,1.64,1.64,0,0,1,1.684-1.622,1.493,1.493,0,0,1,1.451.983h-.756a.85.85,0,0,0-.308-.26.992.992,0,0,0-.448-.092.93.93,0,0,0-.681.318,1.071,1.071,0,0,0-.284.709,1.048,1.048,0,0,0,.264.686.972.972,0,0,0,.745.331.939.939,0,0,0,.552-.186.907.907,0,0,0,.321-.408Z" transform="translate(82.265 -114.827)" fill="#fff"/>
    <rect id="Rectangle_11" data-name="Rectangle 11" width="0.611" height="3.171" transform="translate(364.916 -44.43)" fill="#fff"/>
    <path id="Path_97" data-name="Path 97" d="M285.4,70.417h1.71v.549h-1.1V71.7h1.1v.54h-1.1v.8h1.1v.542H285.4Z" transform="translate(80.716 -114.847)" fill="#fff"/>
    <path id="Path_98" data-name="Path 98" d="M289.14,70.874a.328.328,0,0,0-.255.112.372.372,0,0,0-.086.24.314.314,0,0,0,.108.264.808.808,0,0,0,.277.131q.169.047.354.112a.946.946,0,0,1,.341.215.642.642,0,0,1,.164.247,1.05,1.05,0,0,1,.054.364,1.159,1.159,0,0,1-.239.735.966.966,0,0,1-.779.34.863.863,0,0,1-.7-.329,1.148,1.148,0,0,1-.231-.708h.567a.625.625,0,0,0,.081.329.33.33,0,0,0,.3.156.377.377,0,0,0,.318-.135.48.48,0,0,0,.087-.3.385.385,0,0,0-.106-.292.613.613,0,0,0-.256-.131c-.1-.027-.211-.059-.325-.1a.832.832,0,0,1-.311-.19.842.842,0,0,1-.194-.291.911.911,0,0,1-.059-.33,1.092,1.092,0,0,1,.21-.66.853.853,0,0,1,.709-.323.789.789,0,0,1,.659.31,1.023,1.023,0,0,1,.2.6h-.558a.428.428,0,0,0-.078-.256.294.294,0,0,0-.247-.113" transform="translate(80.059 -114.827)" fill="#fff"/>
    <path id="Path_99" data-name="Path 99" d="M85.978,77.973a.326.326,0,0,0-.255.113.369.369,0,0,0-.086.239.314.314,0,0,0,.108.264.808.808,0,0,0,.277.131q.169.047.354.112a.946.946,0,0,1,.341.215.643.643,0,0,1,.164.247,1.05,1.05,0,0,1,.054.364,1.159,1.159,0,0,1-.239.735.966.966,0,0,1-.779.34.863.863,0,0,1-.7-.329,1.148,1.148,0,0,1-.231-.708h.567a.625.625,0,0,0,.081.329.33.33,0,0,0,.3.156.377.377,0,0,0,.318-.135.48.48,0,0,0,.087-.3.385.385,0,0,0-.106-.292.613.613,0,0,0-.256-.131c-.1-.027-.211-.059-.325-.1a.832.832,0,0,1-.311-.19.842.842,0,0,1-.194-.291.912.912,0,0,1-.059-.33,1.093,1.093,0,0,1,.21-.66.853.853,0,0,1,.709-.323.789.789,0,0,1,.659.31,1.023,1.023,0,0,1,.2.6H86.3a.428.428,0,0,0-.078-.256.3.3,0,0,0-.247-.113" transform="translate(128.666 -116.526)" fill="#fff"/>
    <path id="Path_100" data-name="Path 100" d="M87.517,80.688l1.226-3.171h.532l1.215,3.171h-.657l-.243-.66H88.4l-.253.66Zm1.1-1.244h.765L89,78.409Z" transform="translate(128.061 -116.546)" fill="#fff"/>
    <path id="Path_101" data-name="Path 101" d="M92.239,80.145h.991v.542h-1.6V77.516h.611Z" transform="translate(127.078 -116.546)" fill="#fff"/>
    <path id="Path_102" data-name="Path 102" d="M94.029,79.054a1.672,1.672,0,0,1,.431-1.1,1.642,1.642,0,0,1,2.413.01,1.71,1.71,0,0,1,.424,1.107,1.689,1.689,0,0,1-.447,1.153,1.627,1.627,0,0,1-1.207.507,1.536,1.536,0,0,1-1.2-.546,1.786,1.786,0,0,1-.411-1.131m1.648-.982a.98.98,0,0,0-.74.321,1.03,1.03,0,0,0-.269.679,1.078,1.078,0,0,0,.272.682.971.971,0,0,0,.737.344.942.942,0,0,0,.712-.331,1.077,1.077,0,0,0,.269-.687A1.063,1.063,0,0,0,96.4,78.4a.938.938,0,0,0-.724-.325" transform="translate(126.503 -116.526)" fill="#fff"/>
    <path id="Path_103" data-name="Path 103" d="M98.858,77.516h.585l1.314,2.052V77.516h.6v3.171h-.577l-1.323-2.11v2.11h-.6Z" transform="translate(125.348 -116.546)" fill="#fff"/>
    <rect id="Rectangle_12" data-name="Rectangle 12" width="0.611" height="3.171" transform="translate(228.561 -39.029)" fill="#fff"/>
    <path id="Path_104" data-name="Path 104" d="M106.109,77.516h.585l1.314,2.052V77.516h.6v3.171h-.577l-1.323-2.11v2.11h-.6Z" transform="translate(123.613 -116.546)" fill="#fff"/>
    <path id="Path_105" data-name="Path 105" d="M109.8,78.065v-.549h1.82v.549h-.6v2.622H110.4V78.065Z" transform="translate(122.73 -116.546)" fill="#fff"/>
    <path id="Path_106" data-name="Path 106" d="M112.594,77.516h1.71v.549h-1.1V78.8h1.1v.54h-1.1v.8h1.1v.542h-1.71Z" transform="translate(122.062 -116.546)" fill="#fff"/>
    <path id="Path_107" data-name="Path 107" d="M116.152,80.688h-.611V77.516h.971a1.294,1.294,0,0,1,.9.281.925.925,0,0,1,.284.711,1.029,1.029,0,0,1-.183.6.856.856,0,0,1-.581.348l.8,1.235h-.739l-.837-1.488Zm0-2.657v1.035h.171a.949.949,0,0,0,.553-.14.479.479,0,0,0,.2-.409.447.447,0,0,0-.143-.345.67.67,0,0,0-.459-.141Z" transform="translate(121.356 -116.546)" fill="#fff"/>
    <path id="Path_108" data-name="Path 108" d="M118.9,77.516h.585l1.314,2.052V77.516h.6v3.171h-.577l-1.323-2.11v2.11h-.6Z" transform="translate(120.553 -116.546)" fill="#fff"/>
    <path id="Path_109" data-name="Path 109" d="M122.353,80.688l1.226-3.171h.532l1.215,3.171h-.657l-.243-.66h-1.187l-.253.66Zm1.1-1.244h.765l-.378-1.035Z" transform="translate(119.727 -116.546)" fill="#fff"/>
    <path id="Path_110" data-name="Path 110" d="M126.142,78.065v-.549h1.82v.549h-.6v2.622h-.612V78.065Z" transform="translate(118.82 -116.546)" fill="#fff"/>
    <rect id="Rectangle_13" data-name="Rectangle 13" width="0.611" height="3.171" transform="translate(247.087 -39.029)" fill="#fff"/>
    <path id="Path_111" data-name="Path 111" d="M130.271,79.054a1.672,1.672,0,0,1,.431-1.1,1.641,1.641,0,0,1,2.412.01,1.707,1.707,0,0,1,.424,1.107,1.689,1.689,0,0,1-.447,1.153,1.627,1.627,0,0,1-1.207.507,1.536,1.536,0,0,1-1.2-.546,1.786,1.786,0,0,1-.411-1.131m1.648-.982a.98.98,0,0,0-.74.321,1.03,1.03,0,0,0-.269.679,1.078,1.078,0,0,0,.272.682.971.971,0,0,0,.737.344.942.942,0,0,0,.712-.331,1.077,1.077,0,0,0,.269-.687,1.063,1.063,0,0,0-.256-.684.938.938,0,0,0-.724-.325" transform="translate(117.832 -116.526)" fill="#fff"/>
    <path id="Path_112" data-name="Path 112" d="M135.1,77.516h.585L137,79.569V77.516h.6v3.171h-.577l-1.323-2.11v2.11h-.6Z" transform="translate(116.677 -116.546)" fill="#fff"/>
    <path id="Path_113" data-name="Path 113" d="M138.553,80.688l1.226-3.171h.532l1.215,3.171h-.657l-.243-.66h-1.187l-.253.66Zm1.1-1.244h.765l-.378-1.035Z" transform="translate(115.851 -116.546)" fill="#fff"/>
    <path id="Path_114" data-name="Path 114" d="M143.274,80.145h.991v.542h-1.6V77.516h.611Z" transform="translate(114.867 -116.546)" fill="#fff"/>
    <path id="Path_115" data-name="Path 115" d="M146.968,77.516h1.178a1.372,1.372,0,0,1,1.162.517,1.9,1.9,0,0,1,0,2.122,1.349,1.349,0,0,1-1.144.533h-1.2Zm.611,2.638h.5a.836.836,0,0,0,.747-.339,1.294,1.294,0,0,0,.18-.723,1.1,1.1,0,0,0-.239-.731.977.977,0,0,0-.779-.313h-.406Z" transform="translate(113.837 -116.546)" fill="#fff"/>
    <path id="Path_116" data-name="Path 116" d="M151,79.766v-2.25h.611V79.5a.926.926,0,0,0,.073.408.352.352,0,0,0,.342.205.332.332,0,0,0,.309-.19.906.906,0,0,0,.087-.414v-2h.613V79.7a1.086,1.086,0,0,1-.25.742,1,1,0,0,1-.777.306.98.98,0,0,1-.778-.321,1.032,1.032,0,0,1-.23-.663" transform="translate(112.872 -116.546)" fill="#fff"/>
    <path id="Path_117" data-name="Path 117" d="M156.725,80.687h-.611V77.516h.962a.965.965,0,0,1,.781.319,1.019,1.019,0,0,1-.062,1.334,1.023,1.023,0,0,1-.745.3h-.326Zm0-2.622v.873h.27a.434.434,0,0,0,.326-.134.441.441,0,0,0,.116-.3.434.434,0,0,0-.119-.316.479.479,0,0,0-.349-.126Z" transform="translate(111.649 -116.546)" fill="#fff"/>
    <path id="Path_118" data-name="Path 118" d="M160.853,77.182v.549h-1.1v.739h1.1v.541h-1.1v.8h1.1v.543h-1.709V77.182Zm-.253-1.061-.646.747h-.279l.448-.747Z" transform="translate(110.924 -116.212)" fill="#fff"/>
    <path id="Path_119" data-name="Path 119" d="M161.77,78.065v-.549h1.82v.549h-.6v2.622h-.612V78.065Z" transform="translate(110.296 -116.546)" fill="#fff"/>
    <path id="Path_120" data-name="Path 120" d="M165.174,80.688h-.611V77.516h.971a1.294,1.294,0,0,1,.9.281.925.925,0,0,1,.284.711,1.03,1.03,0,0,1-.183.6.856.856,0,0,1-.581.348l.8,1.235h-.739l-.837-1.488Zm0-2.657v1.035h.171a.949.949,0,0,0,.553-.14.479.479,0,0,0,.2-.409.447.447,0,0,0-.143-.345.67.67,0,0,0-.459-.141Z" transform="translate(109.628 -116.546)" fill="#fff"/>
    <path id="Path_121" data-name="Path 121" d="M167.732,79.054a1.672,1.672,0,0,1,.431-1.1,1.642,1.642,0,0,1,2.413.01A1.71,1.71,0,0,1,171,79.072a1.689,1.689,0,0,1-.447,1.153,1.627,1.627,0,0,1-1.207.507,1.536,1.536,0,0,1-1.2-.546,1.786,1.786,0,0,1-.411-1.131m1.648-.982a.98.98,0,0,0-.74.321,1.03,1.03,0,0,0-.269.679,1.078,1.078,0,0,0,.272.682.971.971,0,0,0,.737.344.942.942,0,0,0,.712-.331,1.077,1.077,0,0,0,.269-.687,1.063,1.063,0,0,0-.256-.684.938.938,0,0,0-.724-.325" transform="translate(108.87 -116.526)" fill="#fff"/>
    <path id="Path_122" data-name="Path 122" d="M173.173,80.145h.991v.542h-1.6V77.516h.611Z" transform="translate(107.714 -116.546)" fill="#fff"/>
    <path id="Path_123" data-name="Path 123" d="M175.153,77.516h1.71v.549h-1.1V78.8h1.1v.54h-1.1v.8h1.1v.542h-1.71Z" transform="translate(107.094 -116.546)" fill="#fff"/>
    <path id="Path_124" data-name="Path 124" d="M178.23,82.075v-.314a.153.153,0,0,0,.147-.086.4.4,0,0,0,.033-.176h-.18v-.587h.549v.641a.52.52,0,0,1-.119.356.571.571,0,0,1-.43.165" transform="translate(106.358 -117.358)" fill="#fff"/>
    <path id="Path_125" data-name="Path 125" d="M181.518,77.516H182.7a1.372,1.372,0,0,1,1.162.517,1.9,1.9,0,0,1,0,2.122,1.349,1.349,0,0,1-1.144.533h-1.2Zm.611,2.638h.5a.836.836,0,0,0,.747-.339,1.294,1.294,0,0,0,.18-.723,1.1,1.1,0,0,0-.239-.731.977.977,0,0,0-.779-.313h-.406Z" transform="translate(105.571 -116.546)" fill="#fff"/>
    <path id="Path_126" data-name="Path 126" d="M185.553,79.766v-2.25h.611V79.5a.925.925,0,0,0,.073.408.351.351,0,0,0,.342.205.332.332,0,0,0,.309-.19.906.906,0,0,0,.087-.414v-2h.613V79.7a1.086,1.086,0,0,1-.25.742,1,1,0,0,1-.777.306.98.98,0,0,1-.778-.321,1.032,1.032,0,0,1-.231-.663" transform="translate(104.606 -116.546)" fill="#fff"/>
    <path id="Path_127" data-name="Path 127" d="M191.76,79.513v-.523h1.98v.189a1.538,1.538,0,0,1-.454,1.061,1.643,1.643,0,0,1-1.183.491,1.542,1.542,0,0,1-1.234-.571,1.8,1.8,0,0,1-.4-1.107,1.64,1.64,0,0,1,1.684-1.622,1.493,1.493,0,0,1,1.451.983h-.756a.85.85,0,0,0-.308-.26.992.992,0,0,0-.448-.092.93.93,0,0,0-.681.318,1.071,1.071,0,0,0-.284.709,1.048,1.048,0,0,0,.264.686.972.972,0,0,0,.745.331.939.939,0,0,0,.552-.186.907.907,0,0,0,.321-.408Z" transform="translate(103.429 -116.526)" fill="#fff"/>
    <path id="Path_128" data-name="Path 128" d="M194.742,80.688l1.226-3.171h.532l1.215,3.171h-.657l-.243-.66h-1.187l-.253.66Zm1.1-1.244h.765l-.378-1.035Z" transform="translate(102.407 -116.546)" fill="#fff"/>
    <path id="Path_129" data-name="Path 129" d="M199.841,78.1h-1.169v-.584h1.864v.514l-1.288,2.079h1.323v.577h-1.989v-.542Z" transform="translate(101.489 -116.546)" fill="#fff"/>
    <path id="Path_130" data-name="Path 130" d="M203.359,77.516h1.71v.549h-1.1V78.8h1.1v.54h-1.1v.8h1.1v.542h-1.71Z" transform="translate(100.346 -116.546)" fill="#fff"/>
    <path id="Path_131" data-name="Path 131" d="M205.985,78.065v-.549h1.82v.549h-.6v2.622h-.612V78.065Z" transform="translate(99.717 -116.546)" fill="#fff"/>
    <path id="Path_132" data-name="Path 132" d="M210.492,77.516h1.178a1.372,1.372,0,0,1,1.162.517,1.9,1.9,0,0,1,0,2.122,1.349,1.349,0,0,1-1.144.533h-1.2Zm.611,2.638h.5a.836.836,0,0,0,.747-.339,1.294,1.294,0,0,0,.18-.723,1.1,1.1,0,0,0-.239-.731.977.977,0,0,0-.779-.313H211.1Z" transform="translate(98.639 -116.546)" fill="#fff"/>
    <path id="Path_133" data-name="Path 133" d="M214.527,77.516h1.71v.549h-1.1V78.8h1.1v.54h-1.1v.8h1.1v.542h-1.71Z" transform="translate(97.674 -116.546)" fill="#fff"/>
    <path id="Path_134" data-name="Path 134" d="M218.2,77.973a.326.326,0,0,0-.255.113.369.369,0,0,0-.086.239.314.314,0,0,0,.108.264.808.808,0,0,0,.277.131q.169.047.354.112a.946.946,0,0,1,.341.215.643.643,0,0,1,.164.247,1.051,1.051,0,0,1,.054.364,1.159,1.159,0,0,1-.239.735.966.966,0,0,1-.779.34.863.863,0,0,1-.7-.329,1.148,1.148,0,0,1-.231-.708h.567a.625.625,0,0,0,.081.329.33.33,0,0,0,.3.156.377.377,0,0,0,.318-.135.48.48,0,0,0,.087-.3.385.385,0,0,0-.106-.292.613.613,0,0,0-.256-.131c-.1-.027-.211-.059-.325-.1a.832.832,0,0,1-.311-.19.843.843,0,0,1-.194-.291.912.912,0,0,1-.059-.33,1.093,1.093,0,0,1,.21-.66.853.853,0,0,1,.709-.323.789.789,0,0,1,.659.31,1.023,1.023,0,0,1,.2.6h-.558a.428.428,0,0,0-.078-.256.3.3,0,0,0-.247-.113" transform="translate(97.031 -116.526)" fill="#fff"/>
    <path id="Path_135" data-name="Path 135" d="M222.015,77.516h1.71v.549h-1.1V78.8h1.1v.54h-1.1v.8h1.1v.542h-1.71Z" transform="translate(95.882 -116.546)" fill="#fff"/>
    <path id="Path_136" data-name="Path 136" d="M224.961,77.516h.585l1.314,2.052V77.516h.6v3.171h-.577l-1.323-2.11v2.11h-.6Z" transform="translate(95.177 -116.546)" fill="#fff"/>
    <path id="Path_137" data-name="Path 137" d="M228.974,77.516h1.71v.549h-1.1V78.8h1.1v.54h-1.1v.8h1.1v.542h-1.71Z" transform="translate(94.217 -116.546)" fill="#fff"/>
    <path id="Path_138" data-name="Path 138" d="M232.532,80.688h-.611V77.516h.971a1.294,1.294,0,0,1,.9.281.925.925,0,0,1,.284.711,1.029,1.029,0,0,1-.183.6.856.856,0,0,1-.581.348l.8,1.235h-.739l-.837-1.488Zm0-2.657v1.035h.171a.949.949,0,0,0,.553-.14.479.479,0,0,0,.2-.409.447.447,0,0,0-.143-.345.67.67,0,0,0-.459-.141Z" transform="translate(93.512 -116.546)" fill="#fff"/>
    <path id="Path_139" data-name="Path 139" d="M236.377,79.513v-.523h1.98v.189a1.538,1.538,0,0,1-.454,1.061,1.643,1.643,0,0,1-1.183.491,1.542,1.542,0,0,1-1.234-.571,1.8,1.8,0,0,1-.4-1.107,1.64,1.64,0,0,1,1.684-1.622,1.493,1.493,0,0,1,1.451.983h-.756a.85.85,0,0,0-.308-.26.992.992,0,0,0-.448-.092.93.93,0,0,0-.681.318,1.071,1.071,0,0,0-.284.709,1.048,1.048,0,0,0,.264.686.972.972,0,0,0,.745.331.939.939,0,0,0,.552-.186.907.907,0,0,0,.321-.408Z" transform="translate(92.754 -116.526)" fill="#fff"/>
    <rect id="Rectangle_14" data-name="Rectangle 14" width="0.611" height="3.171" transform="translate(331.518 -39.029)" fill="#fff"/>
    <path id="Path_140" data-name="Path 140" d="M241.445,77.516h1.71v.549h-1.1V78.8h1.1v.54h-1.1v.8h1.1v.542h-1.71Z" transform="translate(91.234 -116.546)" fill="#fff"/>
    <path id="Path_141" data-name="Path 141" d="M245.12,77.973a.326.326,0,0,0-.255.113.369.369,0,0,0-.086.239.314.314,0,0,0,.108.264.808.808,0,0,0,.277.131q.169.047.354.112a.946.946,0,0,1,.341.215.643.643,0,0,1,.164.247,1.051,1.051,0,0,1,.054.364,1.159,1.159,0,0,1-.239.735.966.966,0,0,1-.779.34.863.863,0,0,1-.7-.329,1.148,1.148,0,0,1-.231-.708h.567a.625.625,0,0,0,.081.329.33.33,0,0,0,.3.156.377.377,0,0,0,.318-.135.48.48,0,0,0,.087-.3.385.385,0,0,0-.106-.292.613.613,0,0,0-.256-.131c-.1-.027-.211-.059-.325-.1a.832.832,0,0,1-.311-.19.842.842,0,0,1-.194-.291.911.911,0,0,1-.059-.33,1.093,1.093,0,0,1,.21-.66.853.853,0,0,1,.709-.323.789.789,0,0,1,.659.31,1.023,1.023,0,0,1,.2.6h-.558a.428.428,0,0,0-.078-.256.3.3,0,0,0-.247-.113" transform="translate(90.591 -116.526)" fill="#fff"/>
    <path id="Path_142" data-name="Path 142" d="M249.544,80.688h-.611V77.516h.971a1.294,1.294,0,0,1,.9.281.925.925,0,0,1,.284.711,1.03,1.03,0,0,1-.183.6.856.856,0,0,1-.581.348l.8,1.235h-.739l-.837-1.488Zm0-2.657v1.035h.171a.949.949,0,0,0,.553-.14.479.479,0,0,0,.2-.409.447.447,0,0,0-.143-.345.67.67,0,0,0-.459-.141Z" transform="translate(89.442 -116.546)" fill="#fff"/>
    <path id="Path_143" data-name="Path 143" d="M252.292,77.516H254v.549h-1.1V78.8H254v.54h-1.1v.8H254v.542h-1.71Z" transform="translate(88.638 -116.546)" fill="#fff"/>
    <path id="Path_144" data-name="Path 144" d="M255.239,77.516h.585l1.314,2.052V77.516h.6v3.171h-.577l-1.323-2.11v2.11h-.6Z" transform="translate(87.933 -116.546)" fill="#fff"/>
    <path id="Path_145" data-name="Path 145" d="M259.061,79.054a1.672,1.672,0,0,1,.431-1.1,1.641,1.641,0,0,1,2.412.01,1.707,1.707,0,0,1,.424,1.107,1.689,1.689,0,0,1-.447,1.153,1.627,1.627,0,0,1-1.207.507,1.536,1.536,0,0,1-1.2-.546,1.786,1.786,0,0,1-.411-1.131m1.648-.982a.98.98,0,0,0-.74.321,1.03,1.03,0,0,0-.269.679,1.078,1.078,0,0,0,.272.682.971.971,0,0,0,.737.344.942.942,0,0,0,.712-.331,1.077,1.077,0,0,0,.269-.687,1.063,1.063,0,0,0-.256-.684.938.938,0,0,0-.724-.325" transform="translate(87.019 -116.526)" fill="#fff"/>
    <path id="Path_146" data-name="Path 146" d="M263.89,79.766v-2.25h.611V79.5a.925.925,0,0,0,.073.408.351.351,0,0,0,.342.205.332.332,0,0,0,.309-.19.907.907,0,0,0,.087-.414v-2h.613V79.7a1.086,1.086,0,0,1-.25.742,1,1,0,0,1-.777.306.979.979,0,0,1-.778-.321,1.032,1.032,0,0,1-.23-.663" transform="translate(85.864 -116.546)" fill="#fff"/>
    <path id="Path_147" data-name="Path 147" d="M267.959,80.687l-1.136-3.171h.65l.7,2.125.7-2.125h.657l-1.143,3.171Z" transform="translate(85.162 -116.546)" fill="#fff"/>
    <path id="Path_148" data-name="Path 148" d="M270.635,77.516h1.71v.549h-1.1V78.8h1.1v.54h-1.1v.8h1.1v.542h-1.71Z" transform="translate(84.25 -116.546)" fill="#fff"/>
    <path id="Path_149" data-name="Path 149" d="M274.193,80.145h.991v.542h-1.6V77.516h.611Z" transform="translate(83.545 -116.546)" fill="#fff"/>
    <path id="Path_150" data-name="Path 150" d="M275.613,80.688l1.226-3.171h.532l1.215,3.171h-.657l-.243-.66H276.5l-.253.66Zm1.1-1.244h.765l-.378-1.035Z" transform="translate(83.059 -116.546)" fill="#fff"/>
    <path id="Path_151" data-name="Path 151" d="M279.724,77.516h.89a.887.887,0,0,1,.651.259.819.819,0,0,1,.232.569.867.867,0,0,1-.067.366.573.573,0,0,1-.258.274.6.6,0,0,1,.388.294.993.993,0,0,1-.133,1.127,1.006,1.006,0,0,1-.749.281h-.954Zm.593,1.279h.171a.467.467,0,0,0,.318-.107.328.328,0,0,0,.115-.244.359.359,0,0,0-.1-.269.467.467,0,0,0-.332-.109h-.171Zm0,.5v.846h.305a.462.462,0,0,0,.341-.125.4.4,0,0,0,.11-.279.417.417,0,0,0-.135-.316.555.555,0,0,0-.377-.126Z" transform="translate(82.075 -116.546)" fill="#fff"/>
    <path id="Path_152" data-name="Path 152" d="M283.365,80.145h.991v.542h-1.6V77.516h.611Z" transform="translate(81.35 -116.546)" fill="#fff"/>
    <path id="Path_153" data-name="Path 153" d="M285.345,77.516h1.71v.549h-1.1V78.8h1.1v.54h-1.1v.8h1.1v.542h-1.71Z" transform="translate(80.73 -116.546)" fill="#fff"/>
    <path id="Path_154" data-name="Path 154" d="M289.021,77.973a.329.329,0,0,0-.256.113.373.373,0,0,0-.086.239.314.314,0,0,0,.108.264.815.815,0,0,0,.277.131q.17.047.354.112a.939.939,0,0,1,.341.215.642.642,0,0,1,.164.247,1.049,1.049,0,0,1,.055.364,1.168,1.168,0,0,1-.239.735.968.968,0,0,1-.78.34.861.861,0,0,1-.7-.329,1.148,1.148,0,0,1-.232-.708h.567a.625.625,0,0,0,.081.329.329.329,0,0,0,.3.156.375.375,0,0,0,.318-.135.481.481,0,0,0,.087-.3.391.391,0,0,0-.106-.292.622.622,0,0,0-.256-.131c-.1-.027-.212-.059-.325-.1a.828.828,0,0,1-.505-.482.911.911,0,0,1-.06-.33,1.1,1.1,0,0,1,.211-.66.851.851,0,0,1,.709-.323.791.791,0,0,1,.659.31,1.027,1.027,0,0,1,.2.6h-.558a.428.428,0,0,0-.078-.256.293.293,0,0,0-.246-.113" transform="translate(80.088 -116.526)" fill="#fff"/>
  </g>
</svg>
