<svg xmlns="http://www.w3.org/2000/svg" xmlns:xlink="http://www.w3.org/1999/xlink" width="849.879" height="991.419" viewBox="0 0 849.879 991.419">
  <defs>
    <clipPath id="clip-path">
      <rect id="Rectangle_46" data-name="Rectangle 46" width="849.879" height="991.419" fill="none"/>
    </clipPath>
  </defs>
  <g id="Group_22" data-name="Group 22" opacity="0.03">
    <g id="Group_21" data-name="Group 21" clip-path="url(#clip-path)">
      <path id="Path_155" data-name="Path 155" d="M264.122,370.741c0-122.529-149.9-255.274-229.776-352.347l-3.824-4.657V600.49h3.824c126.886,0,229.763-102.863,229.776-229.749" transform="translate(386.312 173.867)" fill="#ffa900" fill-rule="evenodd"/>
      <path id="Path_156" data-name="Path 156" d="M136.177,544.608c0-125.875,148.614-263.031,222.115-352.347l3.838-4.657V0C238.876,140.666,4.32,341.08,4.32,544.608,4.32,742.851,163.9,904.165,362.129,906.3V774.357c-125.4-2.089-225.953-104.338-225.953-229.749" transform="translate(54.678)" fill="#ffa900" fill-rule="evenodd"/>
      <path id="Path_157" data-name="Path 157" d="M444.468,541.57V456.9c4.548-2.636,8.973-2.731,12.51-7.129a43.068,43.068,0,0,1,8.631-7.5c1.284-.314,1.475-1.912,2.636-2.622,1.543-.983,1.912,1.516,4.384-1.366,1.625-1.926,4.1-5.053,6.828-5.312,1.844-.191,1.994.232,2.854-1.366s2.008-2.39,2.854-3.756c4.193-.888,4.493-3.455,8.522-5.149,3.346-1.366,6.446-.929,6.446-5.558.068,0,0,0,0-.109a24.637,24.637,0,0,0,15.487-2.813c2.977-1.994,8.358-7.5,12.291-7.5.656,2.622,5.326,1.967,7.58,2.171,3.1-.246,6.091,2.458,9.56,2.458a8.544,8.544,0,0,1,10.092-3.564c3.155,1.366,3.4-3.25,6.378-3.114l7.279.355c4.766.232,4.1-2.595,9-.7s9.068-.97,14.312-1.284c4.425-2.581,4.52-.929,8.194,0,0,1.243-.983,2.841-.983,4.1,0,.533.587.765,1.106.929.3.1.737-1.6,1.366-1.762.505,1.994,3.933,3.127,5.709,3.319,2.526.3,3.018-2.335,4.794-4.438a56.071,56.071,0,0,0,8.645-11.827c.724-1.625.2-4.316.819-6.2a20.791,20.791,0,0,1,4.1-5.681,73.688,73.688,0,0,0,14.695-11.1c6.391-4.6,16.593-5.886,21.619-12.469a36.956,36.956,0,0,1,22.07-14.845A26.954,26.954,0,0,1,692,341.415a23.7,23.7,0,0,0,11.622-2.923c2.008-.956,10.611-4.015,7.115-6.446-1.557-1.079-1.366-7.074,1-7.074,0-.1.082,0,.109-.191,1.625,0,.86-2.731,1.8-3.155,3.332-1.489,1.5-2.349,2.158-5.326.082-.369.492-2.335-.232-2.4-2.431-.191-.847.232-3.018-1.366-.109-.41-.669-2.731-1.366-2.458-.314.123-1.871,2.39-1.98.178-.068-1.366-.137-2.308-1.366-3.045-1.093.833-1.666,3.633-3.619,2.185-1.079-.819-.232-3.933-.232-5.108a9.193,9.193,0,0,1-1.284-1.939c0-1.188,2.117-1.011,2.39-2.1-1.106-1.12-2.308-4.316,0-4.848.778-.2,1.366.068,2.1-.423a8.821,8.821,0,0,0,1.98-2.458V278.293l44.672-10.529c-.287-1.147-1.666-2.4-1.693-3.332-.15-3.155-.41-2.923-2.1-5.668-.669-1.106-3.223-9.56-1.011-10.352a76.153,76.153,0,0,1,12.1-.341,26.094,26.094,0,0,0,7.252-2.294,64.486,64.486,0,0,1,14.053-.587,25.427,25.427,0,0,1,5.968,1.284c3.114.847,4.725-.888,7.525-1.625,2.117-.505,2.923,1.065,4.1.587a28.573,28.573,0,0,1,10.393,1.461,36.3,36.3,0,0,0,11.089,2.335c5.149-.874,12.018,2.24,16.388.778,6.828-2.322,2.977-2.731.232-6.446a19.548,19.548,0,0,1,1.53-13.821c.533-.587,2.731.15,3.674-.287a31.855,31.855,0,0,0,6.542-6.665l-12.906-10.311-7.361-3.264L821.329,195c4.1,1.475,4.316-2.964,4.316-5.791,0-1.543-4.234-3-5.19-3.974-1.366-1.366-.833-4.534-1.994-6.159-3.223-4.534-4.671-2.8-3.5-9.191.533-2.882,3.018-4.275,2.4-7.252-.41-1.98,2.731-1.939,1.625-3.756-.9-1.475-.642-1.707-.642-3.387,0-1.188-1.762-3.756-2.035-5.463-.15-.792-1.68,0-2.048,0-1.8.109-2.4-.806-3.619-1.926.3-3.551,3.114-1.762,3.564-3.278.587-1.926-1.366-2.923-1.366-4.575,0-5.6,4.1-12.837,2.472-18.259a32.781,32.781,0,0,1-2.731-8.536c0-1.366,1.188-2.431.519-4.1-.519-1.284-2.089-2.335-2.923-3.455-.369-.942-2.185-2.171-1.161-3.059.6-.505,6.118-4.37,3.619-5.149-3.523-1.079-2.827-1.967-4.425-4.739-.765-1.284-3.974-3.715-2.1-4.507,1.5-.642,1.038-2.308,1.366-3.5.587-1.9,5.531-2.882.71-5.149a23.278,23.278,0,0,1-5.463-2.335c-.888-.833.56-2.731-1.366-3.209-4.193-1.024-1.625-4.848-3.1-5.34-.587-.191-2.008.765-2.854.765a8.09,8.09,0,0,1-5.19-2.882L784,57.817a38.713,38.713,0,0,1-4.712-.423c-.983-.2-4.589-2.363-5.135-2.049-2.731,1.461-4.452,5.668-7.948,4.971-3.783-.737-8.194-5.463-11.267-2.335-1.366,1.366-4.37-.478-5.135-1.871-1.475-2.731-.751-3.168,0-6.023,0-2.841-5.231-11.581-3.565-12.933-2.731,0-2.854,1.926-4.1,4.1-1.611,2.813-4.561,4.384-5.845,6.61-1.8,3.141-3.346,1.366-6.187,2.24-1.543.464-3.032,2.035-4.671,2.1a28.724,28.724,0,0,1-13.834-2.567c-1.639-.724-4.316-3.564-5.913-3.564-4.739,0-3.5,10.42-11.2,3.8-2.049-1.748-7.143,1.543-9.642,1.366a55.252,55.252,0,0,0-10.925,3.155c-4.234,1.721-6.187-1.011-10.215-1.106a29.9,29.9,0,0,1-16.7-7.184l-8.795-7.033c-4.507-3.578-6-7.757-11.4-9.833-3.414-2.554-2.4-6.487-4.493-10.01a11.085,11.085,0,0,1-1.994-10.529c.287-.642,1.994-2.062,1.994-2.4A41.669,41.669,0,0,0,614.714,6c-2.841,0-4.753,3.947-7.757,4.63-2.363.546-4.52-.191-6.828.546-3.756,1.161-3.81,2.554-8.358,1.693-1.953-.4-1.448,1.229-2.731,2.554-3.373,5.463-2.376,13.657-6.077,19.543a131.365,131.365,0,0,0-5.777,17.167,45.859,45.859,0,0,1-3.4,9.191,61.282,61.282,0,0,1-10.215,24.692,124.132,124.132,0,0,1-12.619,22.643c-2.458,10.447-10.079,15.61-15.869,24-2.212,3.2-8.467,4.971-11.4,8.017l-15.023,9.014a175.513,175.513,0,0,1-19.447,9.191l-16.743,7.539c-3.674,1.666-6.924,4.1-10.352,5.381l-3.264,4.1c-3.332,1.571-6.077-1.229-9.054,1.939-2.4,2.554-2.322,6.214-4.206,9.013A82.252,82.252,0,0,1,426.974,206.1c-4.22,2.854-8.3,11.69-12.96,13.056a14.212,14.212,0,0,1-2.212,2.226c0,2.513,3.223,4.63.751,7.771-.437.587-2.5,2.294-2.281,2.813,4.288.86,2.581,4.589,2.581,7.416,0,4.78-.109,5.313-3.223,8.44-1.571,1.584-.833,4.575-1.98,6.555a24.411,24.411,0,0,1-6.828,7.552c-2.868,5.777-7.88,7.935-9.56,14.5-1.284,4.985-5.135,5.9-5.135,10.475,0,1.693-4.261,5.135-3.278,5.968,2.95,2.54,1.366,8.194.765,11.95s-2.977,3.469-.109,7.02a80.79,80.79,0,0,1,.41,8.9,15.09,15.09,0,0,1-.068,7.361c-.737,3.155-7.443,12.578-.929,12.878,3.892.191,4.821,4.1,6.542,6.828,2.54,4.1,5.353,5.326,5.463,10.83a112.657,112.657,0,0,1-5.777,19.953,54.181,54.181,0,0,1-12.291,18.437c-1.9,1.366-2.608,3.81-4.316,5.326a78.977,78.977,0,0,1-11.922,19.83c-2.2,2.1-4.848,2.622-6.665,5.326a93.282,93.282,0,0,1-6.46,9.956,35.052,35.052,0,0,1-13.575,8.058,82.387,82.387,0,0,1-13.548,7.388c-3.455,1.543-5.2,5.845-8.74,7.962-6.009,3.605-9.874,11.69-14.79,16.839-4.1,4.37-11.95,4.848-16.689,8.017-.847,1.366-4.671,1.844-6.2,2.281a33.5,33.5,0,0,0-7.47,4.275,45.869,45.869,0,0,1-15.022,4.452,86.009,86.009,0,0,0-33.473,7.429,28.941,28.941,0,0,1-8.4,11.882,11.918,11.918,0,0,0-5.381,8.6,69.55,69.55,0,0,1-10.393,23.927L191.6,559.31c-.669,3.223-2.731,6.118-3.633,9.314-2.144,7.566-6.35,8.194-12.086,12.578L165.9,588.8a15.073,15.073,0,0,1-9.929,3.687c-2.731-.355-3.373.109-4.438,2.882-2.335,6.173-8.986,4.493-11.513,9.355-.983,1.926-4.438,4.452-4.193,6.146a31.152,31.152,0,0,1-.232,5.64,29.583,29.583,0,0,1-5.941,14.9,74.343,74.343,0,0,1-7.88,19.912,25.823,25.823,0,0,0-3.1,17.208,24.827,24.827,0,0,1,.642,10.461,52.305,52.305,0,0,1-5.463,17.563c-2.731.888-1.762,1.366-2.8,3.209-1.188,2.062-4,3.046-5.845,4.452-3.018,2.322-5.244,5.791-8.194,7.894A64.683,64.683,0,0,0,85.8,722.223c-3.605,3.619-5.695,8.973-9.751,11.881a64.588,64.588,0,0,0-8.29,6.5,42.772,42.772,0,0,0-9.929,15.309,107.925,107.925,0,0,0,10.925-14.79c2.09-2.581,2.458.287,3.687,2.1s-4.671,6.146-5.463,7.552c-1.366,2.4-2.281,4.957-3.633,7.32l-4.957,9.191c-1.5,2.731-4.1,4.534-5.313,7.32-.833,2.021-1.106,4.1-2.035,6.077-.615,1.366-4.889,6.569-4.794,6.665a13,13,0,0,1,2.39.478c2.649,3.715-.915,8.713-4.725,9.874-1.366,1.188-3.155,1.857-2.171,3.865.574,1.106-.287,2.212-1.052,3.1-2.13,2.5-1.2,6.992-1.8,10.01s-2.5,2.868-4.206,5.08c-2.567,3.319-1.612,6.733-3.264,10.188-.956,1.994-7.17,5.19-8.932,3.564-2.581-2.4-1.174-.109-3.209,1.516-5.463,3.332-6.446,9.751-8.29,15.391-1.721,5.217-5.463,8.194-5.463,13.821a27.968,27.968,0,0,1-1.161,9.013A300.253,300.253,0,0,1,.156,908.01,20.509,20.509,0,0,0,.8,916.2l.765-7.648,3.223-13.274,1.953-7.812h208.8l-1.229-41.38-2.977-27.778-3.838-11.881a8.508,8.508,0,0,0,2.923-6.828c-.123-2.2-1.174-2.923.683-4.794a61.061,61.061,0,0,1,10.106-7.184,74.093,74.093,0,0,0,13.657-9.56,16.856,16.856,0,0,1,8.358-2.4c5.941,0,9.068-4.1,14.067-6.009a56.873,56.873,0,0,0,11.007-3.851V618.431H444.468Z" transform="translate(-0.006 75.214)" fill="#cd000f" fill-rule="evenodd"/>
      <path id="Path_158" data-name="Path 158" d="M153.692,97.608,145.4,72.1l-8.29,25.511ZM177.769,115.1l5.108,15.719L204.523,115.1Zm-91.5,0L107.9,130.822l5.121-15.719Zm36.5,26.535,22.6,16.388,22.588-16.388L159.346,115.1H131.432Zm-5.681,17.508L108.816,184.6l21.66-15.733Zm43.142,9.724,21.66,15.733-8.276-25.456ZM75.561,230.408l26.672-82.078-69.8-50.722h86.284L145.4,15.476l26.685,82.132h86.284L188.544,148.33l26.672,82.078L145.4,179.672Z" transform="translate(410.5 195.877)" fill="#388626" fill-rule="evenodd"/>
    </g>
  </g>
</svg>
